<?xml version="1.0" encoding="utf-8"?>
<!-- Generator: Adobe Illustrator 16.0.0, SVG Export Plug-In . SVG Version: 6.00 Build 0)  -->
<!DOCTYPE svg PUBLIC "-//W3C//DTD SVG 1.1//EN" "http://www.w3.org/Graphics/SVG/1.1/DTD/svg11.dtd">
<svg version="1.1" id="Layer_1" xmlns="http://www.w3.org/2000/svg" xmlns:xlink="http://www.w3.org/1999/xlink" x="0px" y="0px"
	 width="1291px" height="877px" viewBox="0 0 1291 877" enable-background="new 0 0 1291 877" xml:space="preserve">
<g>
	<g>
		<g>
			<path fill="#00AEEF" stroke="#00AEEF" stroke-width="4.0593" stroke-miterlimit="10" d="M685.953,265.939
				c-3.711,4.21-7.77,7.429-12.166,9.656c-4.396,2.228-9.161,3.346-14.303,3.346c-5.883,0-11.132-1.102-15.742-3.302
				c-4.614-2.192-8.499-5.34-11.654-9.423c-3.159-4.091-5.558-9.011-7.203-14.771c-1.641-5.756-2.457-12.194-2.457-19.317
				c0-7.243,0.892-13.851,2.691-19.825c1.795-5.978,4.353-11.087,7.666-15.325c3.311-4.242,7.338-7.54,12.071-9.895
				c4.733-2.351,10.045-3.528,15.928-3.528c5.078,0,9.646,0.745,13.7,2.228c4.052,1.487,7.813,3.81,11.286,6.965
				c-0.127-3.837-0.202-7.52-0.237-11.048c-0.032-3.532-0.044-7.033-0.044-10.498v-20.34h20.622v125.938h-20.158V265.939z
				 M685.489,208.355c-3.155-3.1-6.485-5.438-9.985-7.017c-3.497-1.578-7.259-2.366-11.282-2.366
				c-6.505,0-11.611,2.739-15.321,8.218c-3.719,5.479-5.578,13.731-5.578,24.752c0,10.529,1.736,18.453,5.205,23.777
				c3.465,5.328,8.389,7.984,14.767,7.984c4.083,0,7.972-1.221,11.654-3.663c3.687-2.45,7.203-5.994,10.541-10.64V208.355z"/>
			<path fill="#00AEEF" stroke="#00AEEF" stroke-width="4.0593" stroke-miterlimit="10" d="M749.293,197.3
				c8.233-9.162,17.553-13.744,27.955-13.744c20.559,0,30.837,11.179,30.837,33.529v59.716h-20.344v-58.233
				c0-6.747-1.161-11.639-3.48-14.671c-2.323-3.033-6.181-4.555-11.567-4.555c-3.834,0-7.675,1.166-11.508,3.489
				c-3.842,2.323-7.688,5.677-11.521,10.077v63.895h-20.34v-91.112h19.968V197.3z"/>
			<path fill="#00AEEF" stroke="#00AEEF" stroke-width="4.0593" stroke-miterlimit="10" d="M864.924,278.942
				c-12.999,0-22.803-2.466-29.395-7.385c-6.597-4.924-10.235-12.246-10.913-21.966h19.599c0.183,10.402,7.024,15.603,20.526,15.603
				c5.998,0,10.616-1.221,13.839-3.67c3.215-2.442,4.824-5.526,4.824-9.241c0-2.414-0.801-4.38-2.41-5.895
				c-1.613-1.518-3.75-2.803-6.414-3.857c-2.66-1.05-5.677-1.978-9.05-2.787c-3.378-0.801-6.83-1.673-10.358-2.601
				s-6.977-2.026-10.354-3.294c-3.374-1.269-6.395-2.914-9.054-4.923c-2.66-2.01-4.801-4.491-6.41-7.433
				c-1.613-2.938-2.414-6.577-2.414-10.91c0-3.964,0.82-7.603,2.457-10.914c1.646-3.31,4-6.16,7.064-8.546
				c3.064-2.382,6.811-4.238,11.238-5.57c4.42-1.332,9.423-1.998,14.992-1.998c12.329,0,21.598,2.196,27.816,6.593
				c6.229,4.396,9.49,10.897,9.804,19.507h-19.317c-0.495-8.237-6.347-12.356-17.557-12.356c-2.355,0-4.567,0.25-6.641,0.745
				s-3.869,1.209-5.387,2.137c-1.515,0.928-2.708,2.089-3.576,3.48c-0.868,1.396-1.296,2.957-1.296,4.693
				c0,1.546,0.214,2.878,0.646,3.992c0.437,1.114,1.439,2.152,3.021,3.112c1.577,0.959,3.896,1.918,6.965,2.878
				c3.064,0.959,7.199,2.062,12.396,3.298c5.883,1.546,10.945,3.08,15.19,4.599c4.238,1.514,7.703,3.313,10.398,5.383
				c2.691,2.078,4.674,4.551,5.946,7.429c1.265,2.882,1.903,6.458,1.903,10.727c0,4.214-0.809,8.099-2.41,11.659
				c-1.614,3.56-4.012,6.64-7.203,9.24c-3.188,2.601-7.151,4.63-11.889,6.081C876.769,278.212,871.242,278.942,864.924,278.942z"/>
		</g>
		<g>
			<path fill="#00AEEF" stroke="#00AEEF" stroke-width="4.0593" stroke-miterlimit="10" d="M642.771,453.147h-20.344v-19.04h20.344
				V453.147z M642.771,560.414h-20.344v-91.108h20.344V560.414z"/>
			<path fill="#00AEEF" stroke="#00AEEF" stroke-width="4.0593" stroke-miterlimit="10" d="M685.953,480.916
				c8.237-9.161,17.557-13.747,27.959-13.747c20.559,0,30.838,11.179,30.838,33.528v59.717h-20.345V502.18
				c0-6.746-1.161-11.635-3.484-14.667c-2.319-3.036-6.176-4.551-11.56-4.551c-3.845,0-7.679,1.157-11.52,3.48
				c-3.842,2.323-7.675,5.681-11.52,10.077v63.895h-20.333v-91.108h19.964V480.916z"/>
			<path fill="#00AEEF" stroke="#00AEEF" stroke-width="4.0593" stroke-miterlimit="10" d="M791.186,484.54v75.874h-20.344V484.54
				h-13.371v-15.234h13.371v-7.433c0-10.148,2.244-17.657,6.739-22.521c4.487-4.855,11.433-7.29,20.852-7.29
				c2.843,0,5.388,0.096,7.611,0.278c2.228,0.189,4.237,0.467,6.037,0.836v16.162c-1.609-0.187-3.255-0.357-4.923-0.512
				c-1.67-0.154-3.438-0.233-5.297-0.233c-3.65,0-6.347,1.054-8.074,3.159c-1.732,2.105-2.602,5.665-2.602,10.684v6.87h16.717
				v15.234H791.186z"/>
			<path fill="#00AEEF" stroke="#00AEEF" stroke-width="4.0593" stroke-miterlimit="10" d="M840.219,482.771
				c3.532-5.138,7.369-9.022,11.516-11.654c4.15-2.633,8.61-3.948,13.379-3.948c1.047,0,2.177,0.063,3.39,0.187
				c1.21,0.126,2.494,0.277,3.854,0.463v18.949c-1.359-0.313-2.926-0.539-4.693-0.697c-1.761-0.159-3.698-0.234-5.804-0.234
				c-4.023,0-7.833,1.011-11.421,3.017c-3.596,2.018-6.874,5.066-9.851,9.153v62.408h-20.332v-91.108h19.963V482.771z"/>
			<path fill="#00AEEF" stroke="#00AEEF" stroke-width="4.0593" stroke-miterlimit="10" d="M942.293,551.688
				c-8.171,7.243-18.604,10.866-31.298,10.866c-4.273,0-8.329-0.575-12.17-1.721c-3.837-1.142-7.195-2.83-10.077-5.063
				c-2.878-2.228-5.153-4.982-6.822-8.265c-1.677-3.278-2.509-7.088-2.509-11.425c0-10.648,4.563-18.604,13.7-23.868
				c9.133-5.261,22.861-7.893,41.188-7.893h7.801c0-2.728-0.047-5.122-0.139-7.199c-0.091-2.073-0.293-3.727-0.605-4.968
				c-0.742-3.159-2.256-5.633-4.547-7.433c-2.914-2.537-7.742-3.806-14.489-3.806c-6.506,0-11.453,1.189-14.858,3.576
				c-3.413,2.387-5.173,6.018-5.296,10.909h-19.408c1.173-18.821,14.699-28.232,40.585-28.232c6.129,0,11.531,0.531,16.205,1.577
				c4.67,1.059,8.841,2.818,12.491,5.297c3.528,2.354,6.165,5.648,7.894,9.895c1.731,4.241,2.6,10.072,2.6,17.506v58.971h-20.244
				V551.688z M942.105,517.414h-9.843c-10.592,0-18.56,1.424-23.915,4.273c-5.356,2.851-8.036,7.278-8.036,13.284
				c0,4.393,1.578,7.702,4.733,9.935c3.164,2.228,7.405,3.346,12.725,3.346c2.423,0,4.816-0.281,7.203-0.841
				c2.379-0.555,4.631-1.344,6.731-2.362c2.104-1.022,4.044-2.264,5.804-3.719c1.768-1.45,3.298-3.076,4.598-4.876V517.414z"/>
		</g>
		<g>
			<path fill="#00AEEF" stroke="#00AEEF" stroke-width="4.0593" stroke-miterlimit="10" d="M642.398,333.917
				c3.528-5.142,7.369-9.026,11.516-11.655c4.151-2.632,8.603-3.947,13.371-3.947c1.055,0,2.185,0.059,3.395,0.182
				c1.205,0.127,2.489,0.281,3.853,0.468v18.945c-1.363-0.31-2.922-0.544-4.689-0.694c-1.769-0.158-3.698-0.237-5.804-0.237
				c-4.023,0-7.833,1.011-11.429,3.021c-3.588,2.014-6.866,5.063-9.839,9.149v62.412h-20.344v-91.113h19.971V333.917z"/>
			<path fill="#00AEEF" stroke="#00AEEF" stroke-width="4.0593" stroke-miterlimit="10" d="M727.192,413.696
				c-7.247,0-13.716-1.099-19.413-3.299c-5.7-2.2-10.492-5.355-14.394-9.47c-3.9-4.123-6.874-9.134-8.915-15.049
				c-2.046-5.914-3.064-12.582-3.064-20.011c0-7.437,1.019-14.089,3.064-19.972c2.041-5.883,4.982-10.869,8.82-14.953
				c3.841-4.087,8.483-7.215,13.93-9.379c5.451-2.168,11.607-3.25,18.481-3.25c6.751,0,12.852,1.038,18.302,3.107
				c5.447,2.077,10.105,5.126,13.979,9.149c3.865,4.027,6.842,8.979,8.915,14.861s3.112,12.63,3.112,20.245v4.832h-67.526
				c0.25,5.016,1.051,9.332,2.415,12.951c1.363,3.627,3.143,6.612,5.343,8.967c2.196,2.355,4.753,4.1,7.663,5.249
				c2.906,1.146,6.065,1.717,9.475,1.717c2.537,0,4.963-0.278,7.286-0.837c2.323-0.555,4.416-1.435,6.275-2.648
				c1.851-1.205,3.417-2.755,4.689-4.642c1.265-1.891,2.085-4.194,2.458-6.921h19.971c-0.745,4.705-2.279,8.887-4.598,12.538
				c-2.323,3.655-5.265,6.72-8.824,9.197c-3.564,2.478-7.663,4.36-12.309,5.664C737.686,413.046,732.635,413.696,727.192,413.696z
				 M749.11,356.759c-0.56-4.329-1.507-8.048-2.835-11.14c-1.332-3.096-3-5.653-5.018-7.667c-2.006-2.01-4.329-3.496-6.966-4.455
				c-2.628-0.96-5.49-1.443-8.59-1.443c-5.938,0-10.974,2.046-15.092,6.133c-4.115,4.087-6.704,10.279-7.754,18.572H749.11z"/>
			<path fill="#00AEEF" stroke="#00AEEF" stroke-width="4.0593" stroke-miterlimit="10" d="M821.461,413.696
				c-13.007,0-22.803-2.462-29.395-7.386c-6.593-4.92-10.236-12.241-10.918-21.965h19.6c0.186,10.405,7.028,15.606,20.521,15.606
				c6.01,0,10.621-1.225,13.84-3.671c3.223-2.445,4.836-5.526,4.836-9.244c0-2.414-0.809-4.377-2.422-5.898
				c-1.609-1.511-3.742-2.795-6.402-3.854c-2.668-1.047-5.681-1.979-9.063-2.783c-3.369-0.801-6.822-1.673-10.35-2.601
				c-3.532-0.928-6.985-2.029-10.355-3.298c-3.381-1.269-6.397-2.91-9.062-4.924c-2.66-2.006-4.797-4.487-6.402-7.429
				c-1.613-2.941-2.422-6.58-2.422-10.909c0-3.965,0.824-7.604,2.466-10.918c1.637-3.306,3.992-6.16,7.057-8.546
				c3.067-2.379,6.81-4.238,11.238-5.566c4.428-1.332,9.431-1.997,15-1.997c12.32,0,21.597,2.195,27.816,6.596
				c6.225,4.393,9.49,10.894,9.796,19.496h-19.317c-0.496-8.229-6.347-12.353-17.55-12.353c-2.354,0-4.566,0.254-6.64,0.745
				c-2.073,0.496-3.873,1.209-5.388,2.141c-1.519,0.928-2.711,2.085-3.575,3.48c-0.872,1.396-1.305,2.957-1.305,4.689
				c0,1.547,0.219,2.875,0.654,3.992c0.432,1.118,1.439,2.152,3.021,3.112c1.578,0.963,3.897,1.923,6.966,2.882
				c3.063,0.959,7.19,2.058,12.396,3.294c5.883,1.55,10.945,3.084,15.187,4.599c4.238,1.519,7.707,3.311,10.402,5.388
				c2.691,2.073,4.674,4.551,5.938,7.429c1.272,2.882,1.906,6.453,1.906,10.727c0,4.214-0.801,8.095-2.414,11.655
				c-1.609,3.56-4.012,6.644-7.199,9.244c-3.19,2.601-7.147,4.63-11.884,6.081C833.297,412.971,827.775,413.696,821.461,413.696z"/>
			<path fill="#00AEEF" stroke="#00AEEF" stroke-width="4.0593" stroke-miterlimit="10" d="M916.656,318.314
				c6.751,0,12.859,1.038,18.346,3.107c5.479,2.077,10.156,5.142,14.021,9.197c3.869,4.055,6.854,9.042,8.963,14.952
				c2.105,5.915,3.156,12.678,3.156,20.297c0,7.675-1.051,14.485-3.156,20.432c-2.108,5.942-5.094,10.94-8.963,14.996
				c-3.865,4.056-8.543,7.14-14.021,9.24c-5.486,2.105-11.595,3.16-18.346,3.16c-6.684,0-12.769-1.055-18.247-3.16
				c-5.479-2.101-10.145-5.185-13.978-9.24c-3.842-4.056-6.814-9.054-8.916-14.996c-2.108-5.946-3.159-12.757-3.159-20.432
				c0-7.619,1.051-14.382,3.159-20.297c2.102-5.91,5.074-10.897,8.916-14.952c3.833-4.056,8.499-7.12,13.978-9.197
				C903.888,319.353,909.973,318.314,916.656,318.314z M916.656,398.462c3.527,0,6.739-0.674,9.613-2.038
				c2.882-1.363,5.34-3.409,7.385-6.133c2.038-2.727,3.623-6.116,4.733-10.168c1.114-4.059,1.677-8.813,1.677-14.255
				c0-5.392-0.563-10.093-1.677-14.12c-1.11-4.028-2.695-7.386-4.733-10.077c-2.045-2.695-4.503-4.722-7.385-6.081
				c-2.874-1.363-6.086-2.046-9.613-2.046c-3.528,0-6.731,0.683-9.613,2.046c-2.878,1.359-5.336,3.386-7.385,6.081
				c-2.038,2.691-3.62,6.049-4.733,10.077c-1.114,4.027-1.669,8.729-1.669,14.12c0,5.442,0.555,10.196,1.669,14.255
				c1.113,4.052,2.695,7.441,4.733,10.168c2.049,2.724,4.507,4.77,7.385,6.133C909.925,397.788,913.128,398.462,916.656,398.462z"/>
			<path fill="#00AEEF" stroke="#00AEEF" stroke-width="4.0593" stroke-miterlimit="10" d="M999.123,411.56h-20.336V306.017h20.336
				V411.56z"/>
			<path fill="#00AEEF" stroke="#00AEEF" stroke-width="4.0593" stroke-miterlimit="10" d="M1099.345,320.446l-33.441,91.113
				h-19.591l-33.902-91.113h21.55l13.28,41.703l8.729,27.306l8.635-27.306l13.47-41.703H1099.345z"/>
			<path fill="#00AEEF" stroke="#00AEEF" stroke-width="4.0593" stroke-miterlimit="10" d="M1153.21,413.696
				c-7.246,0-13.716-1.099-19.408-3.299c-5.7-2.2-10.497-5.355-14.397-9.47c-3.901-4.123-6.875-9.134-8.912-15.049
				c-2.053-5.914-3.068-12.582-3.068-20.011c0-7.437,1.016-14.089,3.068-19.972c2.037-5.883,4.979-10.869,8.816-14.953
				c3.838-4.087,8.483-7.215,13.93-9.379c5.455-2.168,11.607-3.25,18.481-3.25c6.755,0,12.852,1.038,18.299,3.107
				c5.446,2.077,10.108,5.126,13.978,9.149c3.869,4.027,6.842,8.979,8.92,14.861c2.068,5.883,3.107,12.63,3.107,20.245v4.832
				h-67.518c0.245,5.016,1.046,9.332,2.41,12.951c1.363,3.627,3.147,6.612,5.344,8.967c2.195,2.355,4.749,4.1,7.658,5.249
				c2.91,1.146,6.065,1.717,9.482,1.717c2.537,0,4.963-0.278,7.278-0.837c2.323-0.555,4.416-1.435,6.279-2.648
				c1.848-1.205,3.417-2.755,4.686-4.642c1.269-1.891,2.093-4.194,2.458-6.921h19.972c-0.745,4.705-2.275,8.887-4.599,12.538
				c-2.323,3.655-5.265,6.72-8.824,9.197c-3.561,2.478-7.659,4.36-12.305,5.664C1163.699,413.046,1158.657,413.696,1153.21,413.696z
				 M1175.132,356.759c-0.563-4.329-1.506-8.048-2.838-11.14c-1.332-3.096-3.005-5.653-5.019-7.667
				c-2.006-2.01-4.329-3.496-6.961-4.455c-2.633-0.96-5.495-1.443-8.595-1.443c-5.938,0-10.973,2.046-15.088,6.133
				c-4.114,4.087-6.707,10.279-7.754,18.572H1175.132z"/>
			<path fill="#00AEEF" stroke="#00AEEF" stroke-width="4.0593" stroke-miterlimit="10" d="M1233.636,333.917
				c3.536-5.142,7.373-9.026,11.52-11.655c4.146-2.632,8.61-3.947,13.375-3.947c1.055,0,2.181,0.059,3.394,0.182
				c1.205,0.127,2.489,0.281,3.854,0.468v18.945c-1.364-0.31-2.926-0.544-4.694-0.694c-1.76-0.158-3.702-0.237-5.804-0.237
				c-4.027,0-7.833,1.011-11.424,3.021c-3.592,2.014-6.874,5.063-9.848,9.149v62.412h-20.336v-91.113h19.964V333.917z"/>
		</g>
	</g>
	<path fill="#00AEEF" d="M554.905,574.082c0,23.111-18.73,41.846-41.842,41.846H78.313c-23.111,0-41.842-18.734-41.842-41.846
		V139.335c0-23.107,18.73-41.842,41.842-41.842h434.751c23.111,0,41.842,18.735,41.842,41.842V574.082z"/>
	<g>
		<path fill="#FFFFFF" stroke="#00AEEF" stroke-width="6.4218" stroke-miterlimit="10" d="M144.201,375.478
			c-7.112-18.251-11.021-38.104-11.021-58.868H68.382c0,0.436-0.016,0.868-0.016,1.305c0,41.29,11.013,80.013,30.263,113.383
			C110.791,410.334,126.22,391.504,144.201,375.478z"/>
		<path fill="#FFFFFF" stroke="#00AEEF" stroke-width="6.4218" stroke-miterlimit="10" d="M522.994,316.609h-65.441
			c0,20.765-3.908,40.617-11.02,58.868c18.14,16.166,33.68,35.186,45.896,56.37c19.44-33.497,30.58-72.413,30.58-113.934
			C523.01,317.478,523.002,317.045,522.994,316.609z"/>
		<path fill="#FFFFFF" stroke="#00AEEF" stroke-width="6.4218" stroke-miterlimit="10" d="M143.908,487.124
			c8.158-21.248,20.653-40.347,36.415-56.2c-15.571-15.67-27.963-34.5-36.122-55.446c-17.981,16.026-33.41,34.856-45.572,55.819
			C110.704,452.243,126.029,471.077,143.908,487.124z"/>
		<path fill="#FFFFFF" stroke="#00AEEF" stroke-width="6.4218" stroke-miterlimit="10" d="M446.533,375.478
			c-8.166,20.946-20.551,39.776-36.122,55.446c15.864,15.964,28.415,35.21,36.573,56.637c17.926-16.004,33.308-34.798,45.445-55.713
			C480.213,410.663,464.673,391.644,446.533,375.478z"/>
		<path fill="#FFFFFF" stroke="#00AEEF" stroke-width="6.4218" stroke-miterlimit="10" d="M198.637,317.914
			c0-0.437,0.032-0.869,0.032-1.305h-65.488c0,20.765,3.909,40.617,11.021,58.868c16.824-14.997,35.892-27.527,56.632-37.029
			C199.406,331.828,198.637,324.962,198.637,317.914z"/>
		<path fill="#FFFFFF" stroke="#00AEEF" stroke-width="6.4218" stroke-miterlimit="10" d="M392.739,317.914
			c0,7.146-0.793,14.104-2.26,20.812c20.519,9.466,39.388,21.897,56.054,36.752c7.111-18.251,11.02-38.104,11.02-58.868h-64.846
			C392.715,317.045,392.739,317.478,392.739,317.914z"/>
		<path fill="#FFFFFF" stroke="#00AEEF" stroke-width="6.4218" stroke-miterlimit="10" d="M235.869,394.307
			c-17.506-13.731-30.175-33.334-35.036-55.858c-20.74,9.502-39.808,22.032-56.632,37.029c8.158,20.946,20.55,39.776,36.122,55.446
			C195.981,415.162,214.851,402.601,235.869,394.307z"/>
		<path fill="#FFFFFF" stroke="#00AEEF" stroke-width="6.4218" stroke-miterlimit="10" d="M355.285,394.481
			c20.852,8.297,39.57,20.792,55.126,36.442c15.571-15.67,27.956-34.5,36.122-55.446c-16.666-14.854-35.535-27.286-56.054-36.752
			C385.563,361.23,372.839,380.801,355.285,394.481z"/>
		<path fill="#FFFFFF" stroke="#00AEEF" stroke-width="6.4218" stroke-miterlimit="10" d="M353.961,467.878
			c18.148,13.768,31.293,33.771,36.256,56.819c20.804-9.522,39.911-22.093,56.767-37.137c-8.158-21.427-20.709-40.673-36.573-56.637
			C394.531,446.904,375.344,459.589,353.961,467.878z"/>
		<path fill="#FFFFFF" stroke="#00AEEF" stroke-width="6.4218" stroke-miterlimit="10" d="M236.772,467.878
			c-21.383-8.289-40.569-20.974-56.45-36.954c-15.762,15.854-28.257,34.952-36.415,56.2c16.816,15.096,35.9,27.718,56.664,37.299
			C205.59,501.49,218.696,481.59,236.772,467.878z"/>
		<path fill="#FFFFFF" stroke="#00AEEF" stroke-width="6.4218" stroke-miterlimit="10" d="M355.285,394.481
			c-16.451,12.824-37.12,20.483-59.597,20.483c-0.103,0-0.214-0.008-0.325-0.008c-22.445-0.076-43.083-7.786-59.495-20.65
			c-21.018,8.294-39.887,20.855-55.546,36.617c15.88,15.98,35.067,28.665,56.45,36.954c16.277-12.353,36.573-19.693,58.591-19.693
			c22.017,0,42.313,7.341,58.598,19.693c21.383-8.289,40.569-20.974,56.45-36.954C394.855,415.273,376.137,402.778,355.285,394.481z
			"/>
		<path fill="#FFFFFF" stroke="#00AEEF" stroke-width="6.4218" stroke-miterlimit="10" d="M353.961,467.878
			c-18.172,7.045-37.929,10.918-58.598,10.918c-20.662,0-40.419-3.873-58.591-10.918c-18.077,13.712-31.182,33.612-36.201,56.545
			c28.852,13.308,60.953,20.761,94.792,20.809c0.11,0,0.222,0.004,0.325,0.004c33.735,0,65.742-7.357,94.53-20.538
			C385.255,501.649,372.109,481.646,353.961,467.878z"/>
		<path fill="#FFFFFF" stroke="#00AEEF" stroke-width="6.4218" stroke-miterlimit="10" d="M295.363,448.185
			c-22.018,0-42.314,7.341-58.591,19.693c18.172,7.045,37.929,10.918,58.591,10.918c20.669,0,40.426-3.873,58.598-10.918
			C337.677,455.525,317.38,448.185,295.363,448.185z"/>
		<g>
			<path fill="#FFFFFF" stroke="#00AEEF" stroke-width="4.0593" stroke-miterlimit="10" d="M118.783,171.033
				c10.759-1.919,24.768-2.878,39.364-2.878c24.768,0,40.895,4.032,53.183,13.439c13.439,9.981,21.883,26.112,21.883,49.151
				c0,24.765-9.022,41.854-21.312,52.415c-13.629,11.326-34.56,16.701-59.898,16.701c-15.167,0-26.116-0.959-33.22-1.919V171.033z
				 M147.967,276.44c2.498,0.575,6.724,0.575,10.18,0.575c26.687,0.19,44.153-14.402,44.153-45.311
				c0-27.84-15.737-41.088-41.084-41.088c-6.334,0-10.75,0.575-13.249,1.153V276.44z"/>
			<path fill="#FFFFFF" stroke="#00AEEF" stroke-width="4.0593" stroke-miterlimit="10" d="M252.423,298.517V169.114h34.171
				l26.885,47.419c7.683,13.633,15.167,29.763,21.121,44.355h0.38c-1.729-17.089-2.307-34.563-2.307-54.146v-37.628h26.885v129.402
				h-30.722L301.19,248.6c-7.683-14.018-16.316-30.528-22.461-45.695h-0.77c0.96,17.28,1.34,35.519,1.34,56.64v38.972H252.423z"/>
			<path fill="#FFFFFF" stroke="#00AEEF" stroke-width="4.0593" stroke-miterlimit="10" d="M385.865,268.567
				c7.683,4.032,19.972,8.063,32.45,8.063c13.438,0,20.543-5.57,20.543-14.208c0-7.873-6.145-12.673-21.7-18.049
				c-21.502-7.679-35.709-19.583-35.709-38.591c0-22.077,18.623-38.782,48.957-38.782c14.787,0,25.348,2.878,33.029,6.525
				l-6.532,23.424c-4.995-2.494-14.398-6.141-26.878-6.141c-12.677,0-18.813,5.951-18.813,12.479
				c0,8.253,7.104,11.904,23.991,18.429c22.85,8.448,33.41,20.352,33.41,38.786c0,21.696-16.507,40.125-52.025,40.125
				c-14.787,0-29.383-4.032-36.677-8.063L385.865,268.567z"/>
		</g>
	</g>
</g>
</svg>
