<?xml version="1.0" encoding="UTF-8" standalone="no"?><!DOCTYPE svg PUBLIC "-//W3C//DTD SVG 1.1//EN" "http://www.w3.org/Graphics/SVG/1.1/DTD/svg11.dtd"><svg width="100%" height="100%" viewBox="0 0 449 376" version="1.1" xmlns="http://www.w3.org/2000/svg" xmlns:xlink="http://www.w3.org/1999/xlink" xml:space="preserve" xmlns:serif="http://www.serif.com/" style="fill-rule:evenodd;clip-rule:evenodd;stroke-linejoin:round;stroke-miterlimit:1.41421;"><path d="M165.503,304.697c-16.099,12.847 -27.78,30.868 -32.776,50.828l-0.015,0.063c28.566,12.779 59.788,19.319 91.084,19.433c0.106,0 0.212,0.004 0.318,0.004c31.027,-0.035 62.111,-6.544 90.513,-19.045l0.288,-0.128c-4.887,-20.043 -16.847,-38.377 -32.848,-51.15l-0.23,-0.182c-0.451,0.17 -0.903,0.336 -1.355,0.502c-36.742,13.352 -78.255,13.114 -114.713,-0.486c0,0 -0.166,0.083 -0.266,0.161Zm172.915,-35.868c-14.476,13.879 -31.397,25.092 -49.775,32.965c15.554,13.274 27.05,31.428 32.204,51.32c18.074,-8.668 35.144,-19.902 50.457,-33.223l0.291,-0.254c-7.502,-18.851 -18.58,-36.125 -32.524,-50.854c0,0 0.06,-0.642 -0.653,0.046Zm-229.91,-0.063c-13.846,14.616 -24.906,31.817 -32.379,50.446c15.084,13.262 32.134,24.617 50.405,33.499l0.253,0.122c0.115,-0.441 0.234,-0.88 0.354,-1.319c5.295,-19.076 16.315,-36.528 31.78,-49.721c-18.442,-7.9 -35.284,-19.073 -49.774,-32.963c0,0 -0.117,-0.611 -0.639,-0.064Zm267.612,-54.648c-7.807,18.326 -19.057,35.381 -32.804,49.801c0,0 4.803,5.056 8.931,10.142c10.006,12.328 18.217,26.125 24.332,40.781l0.09,0.218c15.78,-14.69 29.46,-31.644 40.457,-50.217c-11.001,-18.696 -24.922,-36.006 -40.935,-50.894c-0.023,0.056 -0.047,0.113 -0.071,0.169Zm-305.069,0.131c-15.726,14.691 -29.344,31.567 -40.288,50.053c10.834,18.409 24.484,35.513 40.306,50.319c7.738,-18.577 19.081,-35.908 33.154,-50.666c0,0 -4.814,-5.175 -8.378,-9.52c-9.989,-12.176 -18.21,-25.774 -24.402,-40.317c0,0 0.27,-0.485 -0.392,0.131Zm153.226,70.148c18.185,0.146 36.182,5.521 51.261,15.564l-0.221,0.076c-33.069,11.281 -70.129,11.339 -103.292,-0.076l0.017,-0.012c15.204,-10.022 33.042,-15.405 51.237,-15.552l0.998,0Zm-60.74,-53.33c-18.47,7.606 -35.569,18.792 -49.975,32.612l-0.252,0.244c14.815,14.294 32.304,25.655 51.393,33.312c32.564,-24.508 80.8,-26.24 115.597,-1.811c1.058,0.743 2.56,1.811 2.56,1.811c18.798,-7.54 36.027,-18.675 50.732,-32.676l0.661,-0.636c-14.328,-13.834 -31.466,-25.132 -50.058,-32.778c-17.187,12.921 -38.837,20.111 -60.528,20.168c-21.658,-0.346 -42.418,-7.273 -59.763,-20.25c0,0 0.069,-0.174 -0.367,0.004Zm-36.744,-54.917c-18.086,8.73 -34.972,19.868 -50.074,32.992l-0.284,0.248c7.465,18.363 18.462,35.327 32.105,49.723l0.243,0.255c14.392,-13.899 31.084,-25.044 49.339,-32.986c0,0 -3.54,-3.132 -6.566,-6.304c-11.724,-12.293 -20.204,-27.448 -24.52,-44.044c-0.081,0.038 -0.162,0.077 -0.243,0.116Zm194.192,0.584c-5.145,19.145 -16.226,36.815 -31.128,49.836c18.052,7.908 34.518,18.975 48.616,32.5l0.308,0.298c13.685,-14.356 24.678,-31.298 32.219,-49.661l0.129,-0.318c-15.042,-13.136 -31.802,-24.219 -49.828,-32.974c0,0 -0.092,-0.532 -0.316,0.319Zm127.22,-23.914l0,0.01c-0.344,36.733 -9.822,73.44 -27.43,105.605l-0.114,-0.187c-9.18,-14.986 -20.004,-28.887 -32.295,-41.415c-4.181,-4.262 -9.591,-9.379 -9.591,-9.379c6.365,-17.125 9.84,-35.264 10.346,-53.394c0.01,-0.413 0.02,-0.826 0.028,-1.24l59.056,0Zm-389.79,0.001l0.005,0.253c0.323,14.657 2.53,29.193 6.652,43.221c1.486,5.058 3.706,11.318 3.706,11.318c-15.667,14.278 -29.274,30.498 -40.651,48.663c-0.334,0.536 -0.666,1.072 -0.996,1.61l-0.133,-0.245c-17.318,-31.981 -26.734,-68.308 -26.998,-104.82l58.415,0Zm324.311,0l-0.003,0.121c-0.377,17.025 -3.444,33.989 -9.16,50.062l-0.096,-0.082c-12.295,-10.488 -25.688,-19.716 -39.878,-27.417c-4.856,-2.635 -11.023,-5.702 -11.023,-5.702c0.987,-5.198 1.577,-10.466 1.751,-15.786c0.012,-0.398 0.022,-0.797 0.03,-1.196l58.379,0Zm-258.866,-0.001l0.002,0.1c0.053,2.448 0.188,4.894 0.416,7.333c0.392,4.185 1.19,9.414 1.19,9.414c-18.596,8.816 -35.945,20.039 -51.466,33.336c-5.717,-16.077 -8.835,-33.099 -9.163,-50.183l59.021,0Z" style="fill:#00aeef;"/><path d="M47.198,4.033c10.759,-1.919 24.768,-2.878 39.364,-2.878c24.768,0 40.895,4.032 53.183,13.439c13.439,9.981 21.883,26.112 21.883,49.151c0,24.765 -9.022,41.854 -21.312,52.415c-13.629,11.326 -34.56,16.701 -59.898,16.701c-15.167,0 -26.116,-0.959 -33.22,-1.919l0,-126.909Zm29.184,105.407c2.498,0.575 6.724,0.575 10.18,0.575c26.687,0.19 44.153,-14.402 44.153,-45.311c0,-27.84 -15.737,-41.088 -41.084,-41.088c-6.334,0 -10.75,0.575 -13.249,1.153l0,84.671Zm104.456,22.077l0,-129.403l34.171,0l26.885,47.419c7.683,13.633 15.167,29.763 21.121,44.355l0.38,0c-1.729,-17.089 -2.307,-34.563 -2.307,-54.146l0,-37.628l26.885,0l0,129.402l-30.722,0l-27.646,-49.916c-7.683,-14.018 -16.316,-30.528 -22.461,-45.695l-0.77,0c0.96,17.28 1.34,35.519 1.34,56.64l0,38.972l-26.876,0Zm133.442,-29.95c7.683,4.032 19.972,8.063 32.45,8.063c13.438,0 20.543,-5.57 20.543,-14.208c0,-7.873 -6.145,-12.673 -21.7,-18.049c-21.502,-7.679 -35.709,-19.583 -35.709,-38.591c0,-22.077 18.623,-38.782 48.957,-38.782c14.787,0 25.348,2.878 33.029,6.525l-6.532,23.424c-4.995,-2.494 -14.398,-6.141 -26.878,-6.141c-12.677,0 -18.813,5.951 -18.813,12.479c0,8.253 7.104,11.904 23.991,18.429c22.85,8.448 33.41,20.352 33.41,38.786c0,21.696 -16.507,40.125 -52.025,40.125c-14.787,0 -29.383,-4.032 -36.677,-8.063l5.954,-23.997Z" style="fill:#00aeef;fill-rule:nonzero;"/></svg>