<?xml version="1.0" encoding="utf-8"?>
<!-- Generator: Adobe Illustrator 16.0.0, SVG Export Plug-In . SVG Version: 6.00 Build 0)  -->
<!DOCTYPE svg PUBLIC "-//W3C//DTD SVG 1.1//EN" "http://www.w3.org/Graphics/SVG/1.1/DTD/svg11.dtd">
<svg version="1.1" id="Layer_1" xmlns="http://www.w3.org/2000/svg" xmlns:xlink="http://www.w3.org/1999/xlink" x="0px" y="0px"
	 width="1291px" height="877px" viewBox="0 0 1291 877" enable-background="new 0 0 1291 877" xml:space="preserve">
<path fill="#00AEEF" d="M974.508,607.922c0,28.712-23.271,51.986-51.982,51.986h-540.11c-28.711,0-51.981-23.274-51.981-51.986
	V67.818c0-28.707,23.27-51.982,51.981-51.982h540.11c28.712,0,51.982,23.275,51.982,51.982V607.922z"/>
<g>
	<path fill="#FFFFFF" stroke="#00AEEF" stroke-width="7.978" stroke-miterlimit="10" d="M464.272,361.186
		c-8.835-22.673-13.69-47.337-13.69-73.133H370.08c0,0.542-0.021,1.079-0.021,1.621c0,51.297,13.682,99.403,37.596,140.86
		C422.766,404.49,441.934,381.098,464.272,361.186z"/>
	<path fill="#FFFFFF" stroke="#00AEEF" stroke-width="7.978" stroke-miterlimit="10" d="M934.861,288.052h-81.299
		c0,25.796-4.855,50.46-13.69,73.133c22.535,20.085,41.841,43.714,57.019,70.032c24.151-41.615,37.992-89.962,37.992-141.545
		C934.883,289.131,934.872,288.594,934.861,288.052z"/>
	<path fill="#FFFFFF" stroke="#00AEEF" stroke-width="7.978" stroke-miterlimit="10" d="M463.907,499.891
		c10.137-26.397,25.658-50.125,45.24-69.82c-19.345-19.469-34.74-42.861-44.875-68.885c-22.339,19.912-41.507,43.305-56.617,69.348
		C422.658,456.556,441.696,479.954,463.907,499.891z"/>
	<path fill="#FFFFFF" stroke="#00AEEF" stroke-width="7.978" stroke-miterlimit="10" d="M839.872,361.186
		c-10.146,26.023-25.531,49.416-44.876,68.885c19.709,19.832,35.301,43.743,45.438,70.361c22.27-19.881,41.377-43.23,56.457-69.214
		C881.713,404.899,862.407,381.271,839.872,361.186z"/>
	<path fill="#FFFFFF" stroke="#00AEEF" stroke-width="7.978" stroke-miterlimit="10" d="M531.9,289.673
		c0-0.542,0.039-1.079,0.039-1.621h-81.357c0,25.796,4.855,50.46,13.69,73.133c20.901-18.63,44.59-34.197,70.356-46.002
		C532.855,306.959,531.9,298.429,531.9,289.673z"/>
	<path fill="#FFFFFF" stroke="#00AEEF" stroke-width="7.978" stroke-miterlimit="10" d="M773.041,289.673
		c0,8.879-0.985,17.522-2.807,25.855c25.49,11.76,48.933,27.205,69.638,45.657c8.835-22.673,13.69-47.337,13.69-73.133h-80.562
		C773.012,288.594,773.041,289.131,773.041,289.673z"/>
	<path fill="#FFFFFF" stroke="#00AEEF" stroke-width="7.978" stroke-miterlimit="10" d="M578.154,384.58
		c-21.748-17.06-37.487-41.414-43.525-69.396c-25.767,11.805-49.455,27.372-70.356,46.002c10.135,26.023,25.53,49.416,44.875,68.885
		C528.601,410.489,552.043,394.883,578.154,384.58z"/>
	<path fill="#FFFFFF" stroke="#00AEEF" stroke-width="7.978" stroke-miterlimit="10" d="M726.511,384.796
		c25.904,10.309,49.16,25.831,68.485,45.274c19.345-19.469,34.73-42.861,44.876-68.885c-20.705-18.452-44.147-33.897-69.638-45.657
		C764.127,343.486,748.317,367.801,726.511,384.796z"/>
	<path fill="#FFFFFF" stroke="#00AEEF" stroke-width="7.978" stroke-miterlimit="10" d="M724.866,475.98
		c22.546,17.104,38.876,41.954,45.043,70.587c25.846-11.829,49.583-27.446,70.524-46.136
		c-10.137-26.618-25.729-50.529-45.438-70.361C775.268,449.922,751.431,465.683,724.866,475.98z"/>
	<path fill="#FFFFFF" stroke="#00AEEF" stroke-width="7.978" stroke-miterlimit="10" d="M579.277,475.98
		c-26.564-10.298-50.4-26.059-70.13-45.91c-19.582,19.695-35.104,43.423-45.24,69.82c20.892,18.753,44.6,34.434,70.396,46.337
		C540.538,517.738,556.82,493.015,579.277,475.98z"/>
	<path fill="#FFFFFF" stroke="#00AEEF" stroke-width="7.978" stroke-miterlimit="10" d="M726.511,384.796
		c-20.438,15.933-46.116,25.447-74.04,25.447c-0.128,0-0.266-0.01-0.404-0.01c-27.885-0.094-53.523-9.673-73.912-25.653
		c-26.111,10.303-49.554,25.909-69.007,45.49c19.729,19.852,43.565,35.612,70.13,45.91c20.222-15.347,45.438-24.468,72.789-24.468
		c27.353,0,52.568,9.121,72.8,24.468c26.564-10.298,50.401-26.059,70.13-45.91C775.671,410.627,752.415,395.104,726.511,384.796z"/>
	<path fill="#FFFFFF" stroke="#00AEEF" stroke-width="7.978" stroke-miterlimit="10" d="M724.866,475.98
		c-22.576,8.751-47.121,13.563-72.8,13.563c-25.668,0-50.213-4.812-72.789-13.563c-22.457,17.034-38.739,41.758-44.974,70.247
		c35.844,16.533,75.726,25.792,117.763,25.852c0.139,0,0.276,0.005,0.404,0.005c41.91,0,81.674-9.141,117.438-25.517
		C763.742,517.935,747.412,493.084,724.866,475.98z"/>
	<path fill="#FFFFFF" stroke="#00AEEF" stroke-width="7.978" stroke-miterlimit="10" d="M652.066,451.513
		c-27.352,0-52.567,9.121-72.789,24.468c22.576,8.751,47.121,13.563,72.789,13.563c25.679,0,50.224-4.812,72.8-13.563
		C704.635,460.634,679.419,451.513,652.066,451.513z"/>
	<g>
		<path fill="#FFFFFF" stroke="#00AEEF" stroke-width="5.0431" stroke-miterlimit="10" d="M432.694,107.197
			c13.365-2.384,30.771-3.576,48.903-3.576c30.771,0,50.805,5.009,66.072,16.695c16.695,12.401,27.185,32.44,27.185,61.063
			c0,30.766-11.209,51.997-26.476,65.117c-16.932,14.07-42.936,20.749-74.415,20.749c-18.842,0-32.444-1.192-41.27-2.384V107.197z
			 M468.951,238.149c3.102,0.714,8.353,0.714,12.646,0.714c33.155,0.237,54.853-17.892,54.853-56.291
			c0-34.587-19.551-51.046-51.041-51.046c-7.87,0-13.356,0.714-16.458,1.433V238.149z"/>
		<path fill="#FFFFFF" stroke="#00AEEF" stroke-width="5.0431" stroke-miterlimit="10" d="M598.721,265.575V104.813h42.453
			l33.399,58.911c9.545,16.937,18.842,36.976,26.24,55.104h0.473c-2.147-21.23-2.866-42.939-2.866-67.268v-46.747h33.4v160.762
			h-38.168l-34.346-62.014c-9.545-17.414-20.271-37.926-27.904-56.769h-0.955c1.191,21.467,1.664,44.126,1.664,70.366v48.416
			H598.721z"/>
		<path fill="#FFFFFF" stroke="#00AEEF" stroke-width="5.0431" stroke-miterlimit="10" d="M764.502,228.368
			c9.543,5.009,24.812,10.018,40.314,10.018c16.695,0,25.52-6.919,25.52-17.651c0-9.781-7.633-15.745-26.958-22.423
			c-26.713-9.54-44.362-24.329-44.362-47.944c0-27.426,23.136-48.179,60.821-48.179c18.37,0,31.489,3.575,41.034,8.106
			l-8.116,29.102c-6.206-3.098-17.888-7.629-33.392-7.629c-15.748,0-23.373,7.393-23.373,15.503
			c0,10.253,8.826,14.789,29.806,22.896c28.387,10.495,41.506,25.285,41.506,48.185c0,26.954-20.506,49.85-64.633,49.85
			c-18.37,0-36.503-5.009-45.564-10.018L764.502,228.368z"/>
	</g>
</g>
</svg>
