<?xml version="1.0" encoding="utf-8"?>
<!-- Generator: Adobe Illustrator 16.0.0, SVG Export Plug-In . SVG Version: 6.00 Build 0)  -->
<!DOCTYPE svg PUBLIC "-//W3C//DTD SVG 1.1//EN" "http://www.w3.org/Graphics/SVG/1.1/DTD/svg11.dtd">
<svg version="1.1" id="Layer_1" xmlns="http://www.w3.org/2000/svg" xmlns:xlink="http://www.w3.org/1999/xlink" x="0px" y="0px"
	 width="1291px" height="877px" viewBox="0 0 1291 877" enable-background="new 0 0 1291 877" xml:space="preserve">
<g>
	<path d="M527.482,576.919c0,22.499-18.234,40.737-40.733,40.737H63.517c-22.499,0-40.732-18.238-40.732-40.737V153.692
		c0-22.497,18.234-40.735,40.732-40.735h423.232c22.499,0,40.733,18.238,40.733,40.735V576.919z"/>
	<g>
		<path fill="#FFFFFF" stroke="#000000" stroke-width="6.2516" stroke-miterlimit="10" d="M127.661,383.577
			c-6.924-17.769-10.729-37.095-10.729-57.309H53.851c0,0.425-0.016,0.845-0.016,1.271c0,40.196,10.721,77.893,29.46,110.379
			C95.136,417.511,110.155,399.179,127.661,383.577z"/>
		<path fill="#FFFFFF" stroke="#000000" stroke-width="6.2516" stroke-miterlimit="10" d="M496.416,326.269h-63.707
			c0,20.214-3.805,39.54-10.728,57.309c17.659,15.738,32.787,34.253,44.681,54.877c18.926-32.61,29.77-70.495,29.77-110.915
			C496.432,327.113,496.424,326.693,496.416,326.269z"/>
		<path fill="#FFFFFF" stroke="#000000" stroke-width="6.2516" stroke-miterlimit="10" d="M127.375,492.266
			c7.941-20.686,20.105-39.278,35.449-54.711c-15.158-15.255-27.222-33.587-35.164-53.978
			c-17.505,15.602-32.525,33.934-44.365,54.341C95.05,458.309,109.97,476.644,127.375,492.266z"/>
		<path fill="#FFFFFF" stroke="#000000" stroke-width="6.2516" stroke-miterlimit="10" d="M421.981,383.577
			c-7.95,20.391-20.007,38.723-35.165,53.978c15.444,15.54,27.662,34.277,35.604,55.136c17.45-15.579,32.425-33.875,44.241-54.236
			C454.769,417.83,439.641,399.315,421.981,383.577z"/>
		<path fill="#FFFFFF" stroke="#000000" stroke-width="6.2516" stroke-miterlimit="10" d="M180.654,327.539
			c0-0.426,0.031-0.846,0.031-1.271h-63.752c0,20.214,3.805,39.54,10.729,57.309c16.377-14.6,34.94-26.798,55.131-36.048
			C181.402,341.083,180.654,334.4,180.654,327.539z"/>
		<path fill="#FFFFFF" stroke="#000000" stroke-width="6.2516" stroke-miterlimit="10" d="M369.612,327.539
			c0,6.957-0.771,13.73-2.2,20.26c19.975,9.216,38.344,21.317,54.569,35.778c6.923-17.769,10.728-37.095,10.728-57.309h-63.127
			C369.589,326.693,369.612,327.113,369.612,327.539z"/>
		<path fill="#FFFFFF" stroke="#000000" stroke-width="6.2516" stroke-miterlimit="10" d="M216.899,401.907
			c-17.042-13.367-29.376-32.45-34.107-54.378c-20.191,9.25-38.754,21.448-55.131,36.048c7.941,20.391,20.005,38.723,35.164,53.978
			C178.068,422.211,196.438,409.98,216.899,401.907z"/>
		<path fill="#FFFFFF" stroke="#000000" stroke-width="6.2516" stroke-miterlimit="10" d="M333.151,402.077
			c20.299,8.077,38.522,20.242,53.665,35.478c15.158-15.255,27.215-33.587,35.165-53.978
			c-16.225-14.461-34.594-26.563-54.569-35.778C362.627,369.707,350.24,388.759,333.151,402.077z"/>
		<path fill="#FFFFFF" stroke="#000000" stroke-width="6.2516" stroke-miterlimit="10" d="M331.863,473.529
			c17.667,13.403,30.464,32.876,35.295,55.313c20.253-9.27,38.854-21.508,55.263-36.152c-7.942-20.858-20.16-39.596-35.604-55.136
			C371.357,453.111,352.678,465.459,331.863,473.529z"/>
		<path fill="#FFFFFF" stroke="#000000" stroke-width="6.2516" stroke-miterlimit="10" d="M217.779,473.529
			c-20.816-8.07-39.495-20.418-54.955-35.975c-15.344,15.433-27.508,34.025-35.449,54.711c16.37,14.694,34.948,26.982,55.162,36.311
			C187.422,506.251,200.181,486.879,217.779,473.529z"/>
		<path fill="#FFFFFF" stroke="#000000" stroke-width="6.2516" stroke-miterlimit="10" d="M333.151,402.077
			c-16.015,12.484-36.137,19.94-58.018,19.94c-0.101,0-0.208-0.008-0.317-0.008c-21.851-0.073-41.94-7.579-57.917-20.103
			c-20.461,8.073-38.831,20.304-54.075,35.647c15.46,15.557,34.138,27.904,54.955,35.975c15.845-12.025,35.604-19.172,57.038-19.172
			c21.434,0,41.193,7.146,57.046,19.172c20.815-8.07,39.494-20.418,54.954-35.975C371.673,422.319,353.451,410.154,333.151,402.077z
			"/>
		<path fill="#FFFFFF" stroke="#000000" stroke-width="6.2516" stroke-miterlimit="10" d="M331.863,473.529
			c-17.691,6.858-36.924,10.628-57.046,10.628c-20.113,0-39.347-3.77-57.038-10.628c-17.598,13.35-30.356,32.722-35.242,55.047
			c28.086,12.955,59.338,20.211,92.279,20.257c0.108,0,0.216,0.003,0.317,0.003c32.841,0,64-7.162,92.025-19.993
			C362.327,506.405,349.53,486.933,331.863,473.529z"/>
		<path fill="#FFFFFF" stroke="#000000" stroke-width="6.2516" stroke-miterlimit="10" d="M274.816,454.357
			c-21.434,0-41.192,7.146-57.038,19.172c17.69,6.858,36.924,10.628,57.038,10.628c20.122,0,39.355-3.77,57.046-10.628
			C316.009,461.504,296.25,454.357,274.816,454.357z"/>
		<g>
			<path fill="#FFFFFF" stroke="#000000" stroke-width="3.9518" stroke-miterlimit="10" d="M102.916,184.549
				c10.473-1.868,24.111-2.801,38.321-2.801c24.112,0,39.811,3.924,51.774,13.082c13.083,9.718,21.302,25.42,21.302,47.85
				c0,24.108-8.784,40.745-20.747,51.026c-13.268,11.025-33.644,16.258-58.312,16.258c-14.765,0-25.424-0.934-32.339-1.868V184.549z
				 M131.327,287.164c2.431,0.559,6.545,0.559,9.91,0.559c25.979,0.186,42.983-14.02,42.983-44.109c0-27.103-15.321-40-39.996-40
				c-6.167,0-10.466,0.56-12.897,1.123V287.164z"/>
			<path fill="#FFFFFF" stroke="#000000" stroke-width="3.9518" stroke-miterlimit="10" d="M233.015,308.655V182.682h33.266
				l26.172,46.163c7.479,13.272,14.766,28.975,20.562,43.18h0.37c-1.682-16.636-2.245-33.647-2.245-52.711v-36.631h26.172v125.974
				h-29.908l-26.914-48.594c-7.479-13.646-15.884-29.718-21.865-44.484h-0.749c0.934,16.822,1.305,34.578,1.305,55.14v37.938
				H233.015z"/>
			<path fill="#FFFFFF" stroke="#000000" stroke-width="3.9518" stroke-miterlimit="10" d="M362.921,279.5
				c7.479,3.924,19.442,7.85,31.591,7.85c13.082,0,19.998-5.423,19.998-13.832c0-7.665-5.982-12.338-21.125-17.571
				c-20.932-7.475-34.763-19.063-34.763-37.569c0-21.491,18.13-37.753,47.661-37.753c14.395,0,24.675,2.802,32.154,6.352
				l-6.36,22.804c-4.862-2.427-14.016-5.978-26.165-5.978c-12.341,0-18.315,5.793-18.315,12.149c0,8.035,6.916,11.589,23.355,17.941
				c22.244,8.224,32.525,19.813,32.525,37.758c0,21.122-16.07,39.063-50.648,39.063c-14.395,0-28.604-3.924-35.705-7.85
				L362.921,279.5z"/>
		</g>
	</g>
</g>
</svg>
