<?xml version="1.0" encoding="utf-8"?>
<!-- Generator: Adobe Illustrator 16.0.0, SVG Export Plug-In . SVG Version: 6.00 Build 0)  -->
<!DOCTYPE svg PUBLIC "-//W3C//DTD SVG 1.1//EN" "http://www.w3.org/Graphics/SVG/1.1/DTD/svg11.dtd">
<svg version="1.1" id="Layer_1" xmlns="http://www.w3.org/2000/svg" xmlns:xlink="http://www.w3.org/1999/xlink" x="0px" y="0px"
	 width="792px" height="612px" viewBox="0 0 792 612" enable-background="new 0 0 792 612" xml:space="preserve">
<g>
	<g>
		<path d="M604.346,428.068c0,18.575-15.055,33.633-33.631,33.633H221.283c-18.575,0-33.63-15.058-33.63-33.633V78.639
			c0-18.574,15.055-33.632,33.63-33.632h349.432c18.576,0,33.631,15.058,33.631,33.632V428.068z"/>
		<g>
			<path fill="#FFFFFF" stroke="#000000" stroke-width="5.1615" stroke-miterlimit="10" d="M274.242,268.438
				c-5.716-14.669-8.858-30.626-8.858-47.315h-52.082c0,0.351-0.012,0.697-0.012,1.048c0,33.187,8.852,64.311,24.323,91.132
				C247.388,296.456,259.788,281.32,274.242,268.438z"/>
			<path fill="#FFFFFF" stroke="#000000" stroke-width="5.1615" stroke-miterlimit="10" d="M578.696,221.124h-52.599
				c0,16.689-3.141,32.646-8.856,47.315c14.579,12.993,27.069,28.281,36.89,45.309c15.625-26.923,24.578-58.204,24.578-91.575
				C578.709,221.821,578.702,221.474,578.696,221.124z"/>
			<path fill="#FFFFFF" stroke="#000000" stroke-width="5.1615" stroke-miterlimit="10" d="M274.006,358.175
				c6.558-17.078,16.6-32.43,29.269-45.17c-12.516-12.596-22.477-27.731-29.033-44.566c-14.454,12.882-26.854,28.017-36.629,44.865
				C247.318,330.14,259.636,345.277,274.006,358.175z"/>
			<path fill="#FFFFFF" stroke="#000000" stroke-width="5.1615" stroke-miterlimit="10" d="M517.241,268.438
				c-6.564,16.835-16.519,31.971-29.033,44.566c12.751,12.83,22.839,28.3,29.396,45.521c14.407-12.862,26.771-27.969,36.526-44.778
				C544.311,296.719,531.82,281.432,517.241,268.438z"/>
			<path fill="#FFFFFF" stroke="#000000" stroke-width="5.1615" stroke-miterlimit="10" d="M317.994,222.172
				c0-0.351,0.025-0.698,0.025-1.048h-52.636c0,16.689,3.143,32.646,8.858,47.315c13.522-12.053,28.847-22.125,45.518-29.762
				C318.612,233.355,317.994,227.836,317.994,222.172z"/>
			<path fill="#FFFFFF" stroke="#000000" stroke-width="5.1615" stroke-miterlimit="10" d="M474.004,222.172
				c0,5.745-0.638,11.337-1.816,16.727c16.492,7.608,31.657,17.601,45.054,29.54c5.716-14.669,8.856-30.626,8.856-47.315h-52.119
				C473.984,221.474,474.004,221.821,474.004,222.172z"/>
			<path fill="#FFFFFF" stroke="#000000" stroke-width="5.1615" stroke-miterlimit="10" d="M347.919,283.573
				c-14.07-11.037-24.253-26.793-28.16-44.896c-16.67,7.636-31.996,17.708-45.518,29.762c6.556,16.835,16.517,31.971,29.033,44.566
				C315.86,300.335,331.026,290.239,347.919,283.573z"/>
			<path fill="#FFFFFF" stroke="#000000" stroke-width="5.1615" stroke-miterlimit="10" d="M443.901,283.713
				c16.758,6.668,31.804,16.711,44.307,29.292c12.515-12.596,22.469-27.731,29.033-44.566
				c-13.396-11.939-28.562-21.931-45.054-29.54C468.236,256.988,458.009,272.718,443.901,283.713z"/>
			<path fill="#FFFFFF" stroke="#000000" stroke-width="5.1615" stroke-miterlimit="10" d="M442.837,342.706
				c14.586,11.065,25.151,27.143,29.14,45.668c16.722-7.653,32.08-17.757,45.628-29.849c-6.558-17.221-16.646-32.69-29.396-45.521
				C475.443,325.849,460.022,336.044,442.837,342.706z"/>
			<path fill="#FFFFFF" stroke="#000000" stroke-width="5.1615" stroke-miterlimit="10" d="M348.646,342.706
				c-17.187-6.662-32.608-16.857-45.371-29.701c-12.669,12.74-22.711,28.092-29.269,45.17
				c13.515,12.134,28.854,22.278,45.543,29.979C323.583,369.722,334.116,353.728,348.646,342.706z"/>
			<path fill="#FFFFFF" stroke="#000000" stroke-width="5.1615" stroke-miterlimit="10" d="M443.901,283.713
				c-13.224,10.307-29.836,16.463-47.902,16.463c-0.083,0-0.172-0.007-0.262-0.007c-18.04-0.06-34.627-6.258-47.818-16.597
				c-16.893,6.666-32.059,16.763-44.645,29.432c12.763,12.844,28.185,23.039,45.371,29.701
				c13.083-9.928,29.396-15.829,47.092-15.829c17.696,0,34.01,5.901,47.1,15.829c17.186-6.662,32.606-16.857,45.371-29.701
				C475.705,300.425,460.659,290.382,443.901,283.713z"/>
			<path fill="#FFFFFF" stroke="#000000" stroke-width="5.1615" stroke-miterlimit="10" d="M442.837,342.706
				c-14.605,5.662-30.486,8.774-47.1,8.774c-16.606,0-32.486-3.112-47.092-8.774c-14.529,11.021-25.062,27.016-29.097,45.448
				c23.19,10.696,48.991,16.687,76.188,16.724c0.089,0,0.179,0.004,0.262,0.004c27.114,0,52.84-5.914,75.978-16.508
				C467.988,369.849,457.423,353.771,442.837,342.706z"/>
			<path fill="#FFFFFF" stroke="#000000" stroke-width="5.1615" stroke-miterlimit="10" d="M395.737,326.877
				c-17.695,0-34.009,5.901-47.092,15.829c14.605,5.662,30.485,8.774,47.092,8.774c16.613,0,32.494-3.112,47.1-8.774
				C429.747,332.778,413.434,326.877,395.737,326.877z"/>
			<g>
				<path fill="#FFFFFF" stroke="#000000" stroke-width="3.2627" stroke-miterlimit="10" d="M253.812,104.116
					c8.647-1.542,19.906-2.313,31.639-2.313c19.908,0,32.869,3.241,42.747,10.801c10.801,8.023,17.588,20.988,17.588,39.506
					c0,19.904-7.252,33.64-17.13,42.128c-10.954,9.103-27.777,13.424-48.144,13.424c-12.19,0-20.991-0.771-26.7-1.542V104.116z
					 M277.268,188.837c2.008,0.461,5.404,0.461,8.183,0.461c21.449,0.153,35.488-11.575,35.488-36.418
					c0-22.377-12.649-33.025-33.021-33.025c-5.092,0-8.642,0.462-10.649,0.927V188.837z"/>
				<path fill="#FFFFFF" stroke="#000000" stroke-width="3.2627" stroke-miterlimit="10" d="M361.224,206.582V102.574h27.466
					l21.609,38.113c6.175,10.958,12.189,23.923,16.976,35.651h0.307c-1.39-13.736-1.854-27.781-1.854-43.52v-30.244h21.608v104.007
					h-24.693l-22.221-40.122c-6.174-11.266-13.114-24.537-18.053-36.726h-0.618c0.771,13.888,1.078,28.548,1.078,45.524v31.324
					H361.224z"/>
				<path fill="#FFFFFF" stroke="#000000" stroke-width="3.2627" stroke-miterlimit="10" d="M468.479,182.51
					c6.174,3.24,16.052,6.48,26.081,6.48c10.802,0,16.512-4.476,16.512-11.419c0-6.327-4.938-10.186-17.441-14.507
					c-17.281-6.172-28.701-15.74-28.701-31.017c0-17.745,14.969-31.171,39.35-31.171c11.884,0,20.372,2.313,26.548,5.244
					l-5.251,18.828c-4.015-2.005-11.572-4.936-21.603-4.936c-10.189,0-15.122,4.782-15.122,10.03c0,6.633,5.709,9.568,19.283,14.812
					c18.364,6.79,26.853,16.358,26.853,31.175c0,17.438-13.267,32.25-41.816,32.25c-11.884,0-23.615-3.241-29.478-6.48
					L468.479,182.51z"/>
			</g>
		</g>
	</g>
	<g>
		<path stroke="#000000" stroke-width="3.2627" stroke-miterlimit="10" d="M44.008,558.263c-2.028,2.3-4.242,4.053-6.642,5.271
			c-2.401,1.217-5.004,1.829-7.81,1.829c-3.211,0-6.078-0.6-8.597-1.805c-2.519-1.197-4.639-2.912-6.364-5.143
			c-1.724-2.236-3.035-4.918-3.93-8.066c-0.896-3.143-1.343-6.659-1.343-10.546c0-3.958,0.489-7.565,1.47-10.827
			c0.98-3.263,2.375-6.055,4.184-8.367c1.808-2.313,4.007-4.116,6.592-5.404c2.587-1.281,5.484-1.924,8.698-1.924
			c2.771,0,5.264,0.408,7.479,1.216c2.213,0.81,4.268,2.078,6.161,3.806c-0.067-2.097-0.109-4.11-0.125-6.035
			c-0.018-1.931-0.026-3.836-0.026-5.729v-11.107h11.258v68.765H44.008V558.263z M43.756,526.821
			c-1.724-1.694-3.542-2.969-5.452-3.83c-1.91-0.859-3.964-1.293-6.162-1.293c-3.549,0-6.34,1.497-8.368,4.486
			c-2.028,2.994-3.043,7.5-3.043,13.515c0,5.749,0.947,10.076,2.841,12.981c1.893,2.912,4.58,4.365,8.063,4.365
			c2.231,0,4.352-0.67,6.364-2.008c2.01-1.331,3.93-3.269,5.756-5.805V526.821z"/>
		<path stroke="#000000" stroke-width="3.2627" stroke-miterlimit="10" d="M78.595,520.787c4.496-5.003,9.584-7.507,15.264-7.507
			c11.225,0,16.837,6.104,16.837,18.308v32.607H99.589v-31.798c0-3.684-0.634-6.354-1.9-8.011c-1.269-1.657-3.373-2.485-6.314-2.485
			c-2.098,0-4.193,0.632-6.289,1.899c-2.097,1.268-4.192,3.104-6.288,5.506v34.889H67.692v-49.749h10.903V520.787z"/>
		<path stroke="#000000" stroke-width="3.2627" stroke-miterlimit="10" d="M141.73,565.362c-7.101,0-12.45-1.345-16.051-4.034
			c-3.6-2.689-5.586-6.685-5.958-11.993h10.698c0.103,5.678,3.838,8.521,11.208,8.521c3.279,0,5.798-0.67,7.556-2.001
			c1.757-1.338,2.637-3.021,2.637-5.048c0-1.318-0.44-2.39-1.318-3.218c-0.88-0.829-2.046-1.529-3.5-2.108
			c-1.453-0.574-3.102-1.078-4.943-1.518c-1.843-0.439-3.728-0.917-5.655-1.421c-1.926-0.51-3.811-1.108-5.654-1.803
			c-1.842-0.695-3.49-1.588-4.943-2.689c-1.455-1.096-2.621-2.447-3.5-4.053c-0.878-1.606-1.317-3.594-1.317-5.958
			c0-2.167,0.447-4.148,1.343-5.959c0.896-1.81,2.181-3.364,3.854-4.67c1.674-1.301,3.719-2.314,6.136-3.041
			c2.417-0.726,5.147-1.089,8.19-1.089c6.728,0,11.791,1.197,15.189,3.6c3.396,2.402,5.179,5.953,5.349,10.649h-10.547
			c-0.271-4.493-3.467-6.742-9.584-6.742c-1.286,0-2.495,0.133-3.626,0.401c-1.134,0.273-2.114,0.663-2.942,1.166
			c-0.828,0.51-1.478,1.14-1.952,1.904c-0.474,0.76-0.71,1.613-0.71,2.563c0,0.841,0.117,1.567,0.355,2.179
			c0.235,0.606,0.785,1.173,1.646,1.696c0.863,0.528,2.13,1.051,3.804,1.573c1.674,0.529,3.931,1.129,6.769,1.804
			c3.212,0.841,5.977,1.683,8.292,2.511c2.315,0.828,4.209,1.803,5.679,2.938c1.471,1.134,2.552,2.485,3.245,4.06
			c0.693,1.574,1.041,3.523,1.041,5.855c0,2.301-0.439,4.424-1.319,6.366c-0.88,1.944-2.189,3.627-3.931,5.048
			c-1.74,1.414-3.905,2.522-6.49,3.319C148.195,564.96,145.178,565.362,141.73,565.362z"/>
		<path stroke="#000000" stroke-width="3.2627" stroke-miterlimit="10" d="M196.093,543.097H169.52v-8.724h26.573V543.097z"/>
		<path stroke="#000000" stroke-width="3.2627" stroke-miterlimit="10" d="M216.631,521.8c1.926-2.804,4.022-4.926,6.289-6.366
			c2.265-1.434,4.697-2.153,7.302-2.153c0.574,0,1.192,0.031,1.852,0.102s1.36,0.153,2.105,0.255v10.343
			c-0.745-0.166-1.599-0.294-2.563-0.382c-0.963-0.084-2.02-0.128-3.168-0.128c-2.199,0-4.278,0.555-6.239,1.65
			c-1.961,1.103-3.752,2.766-5.375,4.996v34.079h-11.105v-49.749h10.903V521.8z"/>
		<path stroke="#000000" stroke-width="3.2627" stroke-miterlimit="10" d="M262.932,565.362c-3.955,0-7.489-0.6-10.599-1.805
			c-3.11-1.197-5.73-2.924-7.86-5.168c-2.13-2.249-3.751-4.989-4.868-8.22c-1.116-3.225-1.673-6.869-1.673-10.929
			c0-4.053,0.558-7.686,1.673-10.903c1.117-3.211,2.721-5.933,4.817-8.162c2.096-2.231,4.633-3.938,7.607-5.125
			c2.974-1.178,6.338-1.771,10.092-1.771c3.685,0,7.014,0.566,9.99,1.701c2.975,1.128,5.519,2.797,7.632,4.989
			c2.112,2.199,3.735,4.906,4.869,8.118c1.132,3.212,1.699,6.896,1.699,11.051v2.638h-36.868c0.134,2.74,0.574,5.098,1.317,7.073
			c0.745,1.982,1.716,3.613,2.918,4.895c1.199,1.286,2.594,2.242,4.183,2.867c1.588,0.625,3.313,0.937,5.172,0.937
			c1.386,0,2.713-0.153,3.982-0.452c1.266-0.306,2.408-0.791,3.422-1.447c1.014-0.662,1.868-1.503,2.561-2.535
			c0.692-1.033,1.141-2.288,1.344-3.779h10.903c-0.405,2.567-1.243,4.85-2.511,6.844c-1.267,1.995-2.873,3.671-4.818,5.021
			c-1.943,1.352-4.183,2.384-6.717,3.098C268.662,565.004,265.906,565.362,262.932,565.362z M274.899,534.276
			c-0.304-2.37-0.818-4.396-1.545-6.085c-0.728-1.695-1.641-3.091-2.739-4.188c-1.099-1.096-2.367-1.911-3.805-2.434
			c-1.436-0.523-2.999-0.783-4.689-0.783c-3.245,0-5.993,1.114-8.241,3.345c-2.248,2.231-3.66,5.614-4.234,10.145H274.899z"/>
		<path stroke="#000000" stroke-width="3.2627" stroke-miterlimit="10" d="M314.403,565.362c-7.1,0-12.45-1.345-16.051-4.034
			c-3.6-2.689-5.586-6.685-5.958-11.993h10.7c0.102,5.678,3.837,8.521,11.207,8.521c3.278,0,5.797-0.67,7.556-2.001
			c1.757-1.338,2.637-3.021,2.637-5.048c0-1.318-0.44-2.39-1.318-3.218c-0.88-0.829-2.046-1.529-3.5-2.108
			c-1.452-0.574-3.101-1.078-4.943-1.518c-1.843-0.439-3.728-0.917-5.655-1.421c-1.926-0.51-3.811-1.108-5.653-1.803
			c-1.843-0.695-3.491-1.588-4.944-2.689c-1.455-1.096-2.621-2.447-3.499-4.053c-0.88-1.606-1.318-3.594-1.318-5.958
			c0-2.167,0.447-4.148,1.343-5.959c0.896-1.81,2.181-3.364,3.854-4.67c1.673-1.301,3.719-2.314,6.136-3.041
			c2.417-0.726,5.148-1.089,8.19-1.089c6.729,0,11.791,1.197,15.189,3.6c3.396,2.402,5.179,5.953,5.35,10.649h-10.548
			c-0.271-4.493-3.467-6.742-9.584-6.742c-1.286,0-2.495,0.133-3.626,0.401c-1.134,0.273-2.114,0.663-2.942,1.166
			c-0.828,0.51-1.478,1.14-1.952,1.904c-0.474,0.76-0.71,1.613-0.71,2.563c0,0.841,0.117,1.567,0.355,2.179
			c0.236,0.606,0.785,1.173,1.646,1.696c0.864,0.528,2.131,1.051,3.804,1.573c1.674,0.529,3.931,1.129,6.77,1.804
			c3.211,0.841,5.976,1.683,8.292,2.511c2.315,0.828,4.209,1.803,5.68,2.938c1.47,1.134,2.551,2.485,3.244,4.06
			c0.693,1.574,1.041,3.523,1.041,5.855c0,2.301-0.439,4.424-1.319,6.366c-0.88,1.944-2.189,3.627-3.931,5.048
			c-1.74,1.414-3.905,2.522-6.489,3.319C320.868,564.96,317.851,565.362,314.403,565.362z"/>
		<path stroke="#000000" stroke-width="3.2627" stroke-miterlimit="10" d="M366.383,513.28c3.685,0,7.024,0.566,10.016,1.701
			c2.992,1.128,5.544,2.804,7.656,5.015c2.113,2.219,3.744,4.939,4.894,8.17c1.149,3.225,1.724,6.92,1.724,11.075
			c0,4.193-0.575,7.915-1.724,11.158c-1.15,3.244-2.781,5.977-4.894,8.188c-2.112,2.218-4.664,3.9-7.656,5.047
			c-2.992,1.154-6.331,1.728-10.016,1.728c-3.651,0-6.973-0.573-9.965-1.728c-2.992-1.146-5.536-2.829-7.633-5.047
			c-2.096-2.212-3.719-4.944-4.868-8.188c-1.148-3.243-1.724-6.965-1.724-11.158c0-4.155,0.576-7.851,1.724-11.075
			c1.149-3.23,2.772-5.951,4.868-8.17c2.098-2.211,4.642-3.887,7.633-5.015C359.41,513.847,362.732,513.28,366.383,513.28z
			 M366.383,557.046c1.926,0,3.677-0.377,5.248-1.115c1.573-0.746,2.917-1.86,4.032-3.352c1.116-1.484,1.978-3.334,2.586-5.551
			c0.608-2.211,0.912-4.812,0.912-7.787c0-2.938-0.304-5.506-0.912-7.704c-0.608-2.198-1.47-4.034-2.586-5.506
			c-1.116-1.466-2.459-2.575-4.032-3.32c-1.571-0.746-3.321-1.114-5.248-1.114c-1.927,0-3.677,0.368-5.25,1.114
			c-1.572,0.745-2.916,1.854-4.03,3.32c-1.117,1.472-1.979,3.308-2.588,5.506c-0.608,2.198-0.912,4.767-0.912,7.704
			c0,2.976,0.304,5.576,0.912,7.787c0.609,2.217,1.471,4.066,2.588,5.551c1.115,1.491,2.458,2.605,4.03,3.352
			C362.707,556.669,364.456,557.046,366.383,557.046z"/>
		<path stroke="#000000" stroke-width="3.2627" stroke-miterlimit="10" d="M411.416,564.195H400.31v-68.765h11.106V564.195z"/>
		<path stroke="#000000" stroke-width="3.2627" stroke-miterlimit="10" d="M466.134,514.446l-18.258,49.749h-10.698l-18.51-49.749
			h11.765l7.252,22.769l4.767,14.911l4.717-14.911l7.352-22.769H466.134z"/>
		<path stroke="#000000" stroke-width="3.2627" stroke-miterlimit="10" d="M495.546,565.362c-3.956,0-7.49-0.6-10.599-1.805
			c-3.11-1.197-5.73-2.924-7.861-5.168c-2.13-2.249-3.752-4.989-4.868-8.22c-1.115-3.225-1.673-6.869-1.673-10.929
			c0-4.053,0.558-7.686,1.673-10.903c1.116-3.211,2.721-5.933,4.817-8.162c2.097-2.231,4.633-3.938,7.607-5.125
			c2.974-1.178,6.339-1.771,10.092-1.771c3.686,0,7.015,0.566,9.99,1.701c2.975,1.128,5.52,2.797,7.631,4.989
			c2.113,2.199,3.736,4.906,4.869,8.118s1.7,6.896,1.7,11.051v2.638h-36.867c0.133,2.74,0.573,5.098,1.316,7.073
			c0.744,1.982,1.716,3.613,2.918,4.895c1.199,1.286,2.594,2.242,4.183,2.867s3.313,0.937,5.173,0.937
			c1.386,0,2.713-0.153,3.98-0.452c1.267-0.306,2.409-0.791,3.424-1.447c1.014-0.662,1.867-1.503,2.561-2.535
			c0.692-1.033,1.141-2.288,1.343-3.779h10.904c-0.405,2.567-1.243,4.85-2.511,6.844c-1.267,1.995-2.873,3.671-4.818,5.021
			c-1.943,1.352-4.184,2.384-6.718,3.098C501.276,565.004,498.52,565.362,495.546,565.362z M507.513,534.276
			c-0.304-2.37-0.818-4.396-1.545-6.085c-0.728-1.695-1.641-3.091-2.738-4.188c-1.1-1.096-2.368-1.911-3.805-2.434
			c-1.438-0.523-3-0.783-4.69-0.783c-3.244,0-5.993,1.114-8.241,3.345c-2.247,2.231-3.659,5.614-4.233,10.145H507.513z"/>
		<path stroke="#000000" stroke-width="3.2627" stroke-miterlimit="10" d="M539.461,521.8c1.928-2.804,4.025-4.926,6.29-6.366
			c2.265-1.434,4.696-2.153,7.303-2.153c0.574,0,1.19,0.031,1.851,0.102c0.659,0.07,1.361,0.153,2.105,0.255v10.343
			c-0.744-0.166-1.598-0.294-2.561-0.382c-0.966-0.084-2.021-0.128-3.171-0.128c-2.198,0-4.279,0.555-6.238,1.65
			c-1.959,1.103-3.75,2.766-5.375,4.996v34.079h-11.107v-49.749h10.903V521.8z"/>
		<path stroke="#000000" stroke-width="3.2627" stroke-miterlimit="10" d="M587.334,543.097h-26.573v-8.724h26.573V543.097z"/>
		<path stroke="#000000" stroke-width="3.2627" stroke-miterlimit="10" d="M608.072,505.62h-11.104v-10.393h11.104V505.62z
			 M608.072,564.195h-11.104v-49.749h11.104V564.195z"/>
		<path stroke="#000000" stroke-width="3.2627" stroke-miterlimit="10" d="M631.657,520.787c4.492-5.003,9.585-7.507,15.263-7.507
			c11.225,0,16.835,6.104,16.835,18.308v32.607h-11.107v-31.798c0-3.684-0.63-6.354-1.899-8.011
			c-1.268-1.657-3.37-2.485-6.313-2.485c-2.097,0-4.193,0.632-6.29,1.899s-4.19,3.104-6.286,5.506v34.889h-11.104v-49.749h10.903
			V520.787z"/>
		<path stroke="#000000" stroke-width="3.2627" stroke-miterlimit="10" d="M689.111,522.763v41.433h-11.107v-41.433h-7.3v-8.316h7.3
			v-4.06c0-5.545,1.227-9.642,3.677-12.299c2.454-2.65,6.248-3.977,11.387-3.977c1.556,0,2.941,0.052,4.159,0.153
			c1.217,0.102,2.316,0.248,3.298,0.453v8.825c-0.88-0.103-1.777-0.19-2.689-0.28c-0.911-0.083-1.876-0.128-2.894-0.128
			c-1.994,0-3.463,0.581-4.409,1.728c-0.946,1.147-1.421,3.09-1.421,5.83v3.754h9.128v8.316H689.111z"/>
		<path stroke="#000000" stroke-width="3.2627" stroke-miterlimit="10" d="M715.888,521.8c1.925-2.804,4.021-4.926,6.29-6.366
			c2.262-1.434,4.696-2.153,7.303-2.153c0.573,0,1.191,0.031,1.848,0.102c0.663,0.07,1.363,0.153,2.106,0.255v10.343
			c-0.743-0.166-1.597-0.294-2.562-0.382c-0.966-0.084-2.021-0.128-3.17-0.128c-2.199,0-4.276,0.555-6.239,1.65
			c-1.96,1.103-3.751,2.766-5.372,4.996v34.079h-11.107v-49.749h10.903V521.8z"/>
		<path stroke="#000000" stroke-width="3.2627" stroke-miterlimit="10" d="M771.622,559.43c-4.462,3.95-10.159,5.933-17.092,5.933
			c-2.332,0-4.547-0.313-6.643-0.937c-2.098-0.632-3.93-1.55-5.504-2.767c-1.57-1.217-2.813-2.721-3.727-4.512
			c-0.911-1.797-1.367-3.874-1.367-6.238c0-5.818,2.491-10.157,7.478-13.032c4.99-2.874,12.483-4.313,22.492-4.313h4.259
			c0-1.484-0.024-2.798-0.076-3.932c-0.051-1.128-0.159-2.033-0.328-2.709c-0.405-1.727-1.233-3.077-2.485-4.059
			c-1.59-1.383-4.228-2.077-7.911-2.077c-3.55,0-6.255,0.649-8.111,1.949c-1.861,1.301-2.823,3.288-2.894,5.959h-10.598
			c0.641-10.279,8.03-15.415,22.16-15.415c3.35,0,6.296,0.286,8.849,0.859c2.556,0.573,4.827,1.543,6.821,2.894
			c1.928,1.281,3.364,3.084,4.312,5.397c0.945,2.319,1.421,5.507,1.421,9.559v32.206h-11.056V559.43z M771.519,540.714h-5.375
			c-5.782,0-10.135,0.776-13.06,2.332c-2.925,1.555-4.385,3.976-4.385,7.251c0,2.402,0.86,4.213,2.588,5.43
			c1.721,1.217,4.04,1.822,6.945,1.822c1.319,0,2.629-0.153,3.932-0.452c1.3-0.306,2.524-0.739,3.677-1.294
			c1.147-0.561,2.206-1.236,3.167-2.032c0.963-0.79,1.805-1.676,2.511-2.657V540.714z"/>
	</g>
</g>
</svg>
