<?xml version="1.0" encoding="utf-8"?>
<!-- Generator: Adobe Illustrator 16.0.0, SVG Export Plug-In . SVG Version: 6.00 Build 0)  -->
<!DOCTYPE svg PUBLIC "-//W3C//DTD SVG 1.1//EN" "http://www.w3.org/Graphics/SVG/1.1/DTD/svg11.dtd">
<svg version="1.1" id="Layer_1" xmlns="http://www.w3.org/2000/svg" xmlns:xlink="http://www.w3.org/1999/xlink" x="0px" y="0px"
	 width="1291px" height="877px" viewBox="0 0 1291 877" enable-background="new 0 0 1291 877" xml:space="preserve">
<g>
	<g>
		<g>
			<path stroke="#000000" stroke-width="3.9518" stroke-miterlimit="10" d="M655.057,276.941c-3.611,4.1-7.563,7.232-11.844,9.401
				c-4.279,2.168-8.919,3.257-13.924,3.257c-5.727,0-10.836-1.072-15.324-3.215c-4.492-2.134-8.273-5.199-11.346-9.173
				c-3.075-3.982-5.411-8.772-7.012-14.379c-1.598-5.604-2.393-11.87-2.393-18.805c0-7.051,0.868-13.484,2.62-19.3
				c1.747-5.819,4.236-10.793,7.463-14.919c3.223-4.129,7.144-7.341,11.751-9.632c4.608-2.289,9.779-3.436,15.506-3.436
				c4.943,0,9.39,0.726,13.338,2.169c3.944,1.448,7.606,3.709,10.987,6.781c-0.124-3.735-0.198-7.32-0.232-10.755
				c-0.03-3.438-0.042-6.846-0.042-10.219v-19.801h20.076v122.6h-19.625V276.941z M654.605,220.883
				c-3.072-3.018-6.314-5.294-9.721-6.831c-3.403-1.536-7.066-2.304-10.983-2.304c-6.333,0-11.304,2.667-14.916,8
				c-3.62,5.333-5.43,13.368-5.43,24.097c0,10.249,1.69,17.964,5.066,23.146c3.374,5.187,8.166,7.772,14.375,7.772
				c3.977,0,7.762-1.188,11.347-3.566c3.59-2.385,7.013-5.835,10.262-10.358V220.883z"/>
			<path stroke="#000000" stroke-width="3.9518" stroke-miterlimit="10" d="M716.718,210.121c8.016-8.918,17.089-13.38,27.215-13.38
				c20.014,0,30.02,10.883,30.02,32.641v58.133h-19.804v-56.69c0-6.568-1.131-11.331-3.39-14.283
				c-2.261-2.953-6.016-4.434-11.261-4.434c-3.731,0-7.471,1.134-11.203,3.396c-3.738,2.262-7.482,5.527-11.214,9.81v62.201h-19.802
				v-88.697h19.438V210.121z"/>
			<path stroke="#000000" stroke-width="3.9518" stroke-miterlimit="10" d="M829.285,289.599c-12.653,0-22.197-2.401-28.616-7.19
				c-6.421-4.792-9.964-11.92-10.623-21.383h19.08c0.177,10.126,6.837,15.189,19.981,15.189c5.839,0,10.335-1.188,13.472-3.573
				c3.131-2.377,4.698-5.38,4.698-8.996c0-2.351-0.78-4.265-2.347-5.738c-1.571-1.478-3.651-2.729-6.245-3.755
				c-2.588-1.023-5.525-1.925-8.81-2.712c-3.288-0.78-6.649-1.628-10.085-2.532c-3.434-0.902-6.791-1.972-10.079-3.206
				c-3.285-1.236-6.226-2.837-8.815-4.794c-2.589-1.956-4.672-4.372-6.238-7.235c-1.571-2.859-2.352-6.403-2.352-10.621
				c0-3.859,0.799-7.402,2.394-10.624c1.601-3.222,3.894-5.997,6.876-8.32c2.984-2.32,6.631-4.125,10.941-5.422
				c4.304-1.297,9.174-1.946,14.596-1.946c12.001,0,21.024,2.138,27.079,6.418c6.063,4.279,9.238,10.608,9.544,18.99h-18.806
				c-0.482-8.019-6.179-12.028-17.092-12.028c-2.293,0-4.446,0.243-6.464,0.726c-2.021,0.482-3.767,1.177-5.245,2.08
				c-1.475,0.903-2.636,2.034-3.481,3.389c-0.845,1.358-1.262,2.879-1.262,4.569c0,1.505,0.209,2.802,0.629,3.887
				c0.424,1.084,1.401,2.095,2.94,3.029c1.536,0.934,3.793,1.868,6.78,2.802c2.983,0.934,7.008,2.006,12.068,3.21
				c5.727,1.505,10.655,2.999,14.787,4.477c4.125,1.475,7.499,3.226,10.123,5.241c2.621,2.022,4.551,4.43,5.789,7.231
				c1.231,2.806,1.852,6.287,1.852,10.443c0,4.103-0.787,7.884-2.346,11.35c-1.57,3.465-3.905,6.464-7.012,8.995
				c-3.103,2.532-6.962,4.507-11.574,5.919C840.816,288.89,835.437,289.599,829.285,289.599z"/>
		</g>
		<g>
			<path stroke="#000000" stroke-width="3.9518" stroke-miterlimit="10" d="M613.02,459.188h-19.805v-18.536h19.805V459.188z
				 M613.02,563.613h-19.805v-88.694h19.805V563.613z"/>
			<path stroke="#000000" stroke-width="3.9518" stroke-miterlimit="10" d="M655.057,486.222c8.02-8.919,17.092-13.383,27.22-13.383
				c20.013,0,30.02,10.883,30.02,32.64v58.135H692.49v-56.69c0-6.569-1.131-11.327-3.392-14.279
				c-2.259-2.957-6.013-4.431-11.253-4.431c-3.743,0-7.476,1.128-11.215,3.389s-7.472,5.53-11.216,9.811v62.201h-19.792v-88.694
				h19.434V486.222z"/>
			<path stroke="#000000" stroke-width="3.9518" stroke-miterlimit="10" d="M757.502,489.75v73.863h-19.806V489.75H724.68v-14.831
				h13.017v-7.236c0-9.88,2.185-17.188,6.562-21.923c4.368-4.728,11.129-7.099,20.298-7.099c2.768,0,5.245,0.093,7.41,0.271
				c2.169,0.185,4.125,0.454,5.878,0.814v15.733c-1.567-0.182-3.169-0.348-4.794-0.498c-1.624-0.151-3.346-0.228-5.155-0.228
				c-3.555,0-6.179,1.027-7.861,3.075c-1.687,2.05-2.531,5.515-2.531,10.4v6.688h16.273v14.831H757.502z"/>
			<path stroke="#000000" stroke-width="3.9518" stroke-miterlimit="10" d="M805.234,488.028c3.438-5.002,7.175-8.783,11.212-11.346
				c4.041-2.563,8.382-3.844,13.023-3.844c1.02,0,2.119,0.062,3.301,0.181c1.177,0.124,2.428,0.271,3.75,0.452v18.446
				c-1.322-0.305-2.848-0.524-4.569-0.68c-1.714-0.154-3.6-0.228-5.649-0.228c-3.917,0-7.625,0.985-11.118,2.938
				c-3.5,1.964-6.69,4.932-9.589,8.911v60.754h-19.794v-88.694h19.434V488.028z"/>
			<path stroke="#000000" stroke-width="3.9518" stroke-miterlimit="10" d="M904.604,555.119
				c-7.953,7.05-18.11,10.578-30.467,10.578c-4.161,0-8.109-0.56-11.849-1.675c-3.735-1.111-7.004-2.756-9.81-4.929
				c-2.803-2.168-5.017-4.851-6.641-8.046c-1.633-3.192-2.444-6.9-2.444-11.121c0-10.367,4.443-18.111,13.338-23.237
				c8.892-5.12,22.256-7.683,40.096-7.683h7.596c0-2.655-0.046-4.987-0.135-7.008c-0.09-2.019-0.286-3.629-0.591-4.836
				c-0.723-3.077-2.196-5.483-4.426-7.236c-2.837-2.47-7.538-3.705-14.105-3.705c-6.333,0-11.149,1.157-14.465,3.481
				c-3.322,2.323-5.035,5.858-5.155,10.621h-18.894c1.141-18.323,14.309-27.485,39.51-27.485c5.966,0,11.226,0.517,15.775,1.536
				c4.546,1.029,8.606,2.744,12.16,5.154c3.434,2.293,6.001,5.5,7.683,9.633c1.688,4.129,2.533,9.807,2.533,17.042v57.409h-19.71
				V555.119z M904.423,521.754h-9.582c-10.312,0-18.068,1.385-23.282,4.159c-5.215,2.775-7.822,7.086-7.822,12.933
				c0,4.274,1.535,7.498,4.607,9.671c3.08,2.168,7.208,3.257,12.387,3.257c2.359,0,4.689-0.274,7.014-0.818
				c2.314-0.54,4.507-1.308,6.552-2.301c2.05-0.995,3.937-2.202,5.65-3.619c1.721-1.412,3.21-2.994,4.477-4.747V521.754z"/>
		</g>
		<g>
			<path stroke="#000000" stroke-width="3.9518" stroke-miterlimit="10" d="M612.656,343.118c3.436-5.005,7.175-8.788,11.211-11.347
				c4.041-2.563,8.375-3.843,13.017-3.843c1.027,0,2.126,0.058,3.304,0.177c1.174,0.123,2.424,0.274,3.751,0.456v18.443
				c-1.327-0.302-2.844-0.529-4.565-0.677c-1.722-0.154-3.601-0.23-5.65-0.23c-3.916,0-7.624,0.983-11.125,2.94
				c-3.492,1.959-6.684,4.929-9.578,8.906v60.758h-19.805v-88.698h19.441V343.118z"/>
			<path stroke="#000000" stroke-width="3.9518" stroke-miterlimit="10" d="M695.204,420.782c-7.055,0-13.353-1.069-18.898-3.21
				c-5.55-2.142-10.216-5.214-14.013-9.221c-3.798-4.012-6.691-8.891-8.679-14.648c-1.992-5.758-2.983-12.249-2.983-19.481
				c0-7.239,0.991-13.715,2.983-19.441c1.987-5.728,4.851-10.583,8.586-14.558c3.739-3.978,8.259-7.023,13.561-9.13
				c5.307-2.111,11.3-3.164,17.992-3.164c6.571,0,12.511,1.011,17.817,3.024c5.302,2.022,9.836,4.99,13.607,8.908
				c3.762,3.92,6.66,8.74,8.679,14.467c2.018,5.728,3.03,12.295,3.03,19.71v4.703h-65.738c0.245,4.882,1.024,9.085,2.352,12.607
				c1.327,3.531,3.061,6.437,5.201,8.729c2.139,2.293,4.627,3.99,7.46,5.11c2.829,1.115,5.904,1.67,9.225,1.67
				c2.47,0,4.831-0.27,7.092-0.814c2.262-0.539,4.299-1.396,6.108-2.577c1.803-1.173,3.328-2.683,4.566-4.52
				c1.23-1.841,2.03-4.083,2.393-6.738h19.441c-0.724,4.581-2.217,8.653-4.476,12.207c-2.261,3.559-5.125,6.542-8.59,8.953
				c-3.47,2.412-7.46,4.245-11.983,5.515C705.418,420.149,700.502,420.782,695.204,420.782z M716.541,365.354
				c-0.545-4.215-1.467-7.835-2.759-10.846c-1.297-3.014-2.923-5.503-4.887-7.462c-1.952-1.957-4.214-3.404-6.78-4.338
				c-2.559-0.935-5.345-1.405-8.362-1.405c-5.78,0-10.683,1.991-14.691,5.971c-4.007,3.978-6.527,10.006-7.55,18.08H716.541z"/>
			<path stroke="#000000" stroke-width="3.9518" stroke-miterlimit="10" d="M786.974,420.782c-12.661,0-22.198-2.396-28.615-7.189
				c-6.418-4.789-9.964-11.916-10.628-21.384h19.078c0.184,10.13,6.844,15.194,19.98,15.194c5.85,0,10.338-1.192,13.473-3.573
				c3.137-2.382,4.708-5.38,4.708-9c0-2.351-0.787-4.262-2.358-5.742c-1.567-1.47-3.643-2.721-6.233-3.752
				c-2.598-1.019-5.53-1.926-8.821-2.708c-3.281-0.779-6.641-1.628-10.076-2.532c-3.438-0.903-6.8-1.975-10.081-3.211
				c-3.291-1.235-6.229-2.832-8.82-4.793c-2.59-1.953-4.671-4.368-6.233-7.232c-1.57-2.863-2.357-6.405-2.357-10.62
				c0-3.858,0.803-7.401,2.399-10.628c1.594-3.218,3.887-5.996,6.87-8.32c2.987-2.315,6.629-4.125,10.939-5.417
				c4.312-1.298,9.182-1.945,14.604-1.945c11.994,0,21.024,2.137,27.079,6.421c6.06,4.276,9.24,10.605,9.537,18.979h-18.806
				c-0.483-8.012-6.18-12.025-17.085-12.025c-2.293,0-4.446,0.247-6.464,0.726c-2.019,0.483-3.77,1.177-5.245,2.084
				c-1.477,0.903-2.639,2.03-3.48,3.389c-0.849,1.359-1.27,2.879-1.27,4.564c0,1.506,0.213,2.798,0.637,3.887
				c0.42,1.089,1.4,2.096,2.94,3.029c1.536,0.938,3.794,1.872,6.78,2.807c2.984,0.933,7.001,2.002,12.067,3.205
				c5.729,1.511,10.655,3.004,14.785,4.478c4.126,1.479,7.503,3.223,10.127,5.245c2.619,2.019,4.549,4.43,5.78,7.231
				c1.238,2.806,1.856,6.283,1.856,10.442c0,4.103-0.78,7.881-2.35,11.346c-1.567,3.466-3.906,6.469-7.009,9
				c-3.106,2.531-6.959,4.507-11.569,5.92C798.498,420.076,793.121,420.782,786.974,420.782z"/>
			<path stroke="#000000" stroke-width="3.9518" stroke-miterlimit="10" d="M879.646,327.929c6.572,0,12.519,1.011,17.86,3.024
				c5.333,2.022,9.887,5.005,13.65,8.953c3.767,3.948,6.673,8.803,8.726,14.558c2.049,5.758,3.072,12.341,3.072,19.758
				c0,7.472-1.023,14.103-3.072,19.891c-2.053,5.784-4.959,10.651-8.726,14.6c-3.764,3.948-8.317,6.95-13.65,8.995
				c-5.342,2.05-11.288,3.075-17.86,3.075c-6.506,0-12.43-1.025-17.764-3.075c-5.333-2.045-9.875-5.047-13.607-8.995
				c-3.739-3.948-6.633-8.815-8.678-14.6c-2.053-5.788-3.077-12.419-3.077-19.891c0-7.417,1.024-14,3.077-19.758
				c2.045-5.755,4.938-10.609,8.678-14.558c3.732-3.948,8.274-6.931,13.607-8.953C867.217,328.939,873.141,327.929,879.646,327.929z
				 M879.646,405.951c3.436,0,6.562-0.655,9.359-1.983c2.806-1.327,5.197-3.318,7.188-5.97c1.983-2.655,3.528-5.954,4.607-9.898
				c1.086-3.951,1.634-8.578,1.634-13.878c0-5.247-0.548-9.825-1.634-13.746c-1.079-3.92-2.624-7.188-4.607-9.81
				c-1.991-2.624-4.383-4.596-7.188-5.92c-2.798-1.328-5.924-1.991-9.359-1.991c-3.434,0-6.552,0.663-9.357,1.991
				c-2.803,1.324-5.195,3.296-7.189,5.92c-1.984,2.621-3.524,5.89-4.608,9.81c-1.084,3.921-1.625,8.499-1.625,13.746
				c0,5.3,0.541,9.927,1.625,13.878c1.084,3.944,2.624,7.243,4.608,9.898c1.994,2.651,4.387,4.643,7.189,5.97
				C873.095,405.296,876.213,405.951,879.646,405.951z"/>
			<path stroke="#000000" stroke-width="3.9518" stroke-miterlimit="10" d="M959.929,418.702h-19.798V315.957h19.798V418.702z"/>
			<path stroke="#000000" stroke-width="3.9518" stroke-miterlimit="10" d="M1057.495,330.004l-32.556,88.698h-19.071
				l-33.004-88.698h20.979l12.929,40.599l8.497,26.582l8.405-26.582l13.112-40.599H1057.495z"/>
			<path stroke="#000000" stroke-width="3.9518" stroke-miterlimit="10" d="M1109.933,420.782c-7.055,0-13.353-1.069-18.894-3.21
				c-5.55-2.142-10.219-5.214-14.018-9.221c-3.796-4.012-6.691-8.891-8.675-14.648c-1.999-5.758-2.987-12.249-2.987-19.481
				c0-7.239,0.988-13.715,2.987-19.441c1.983-5.728,4.848-10.583,8.582-14.558c3.737-3.978,8.259-7.023,13.562-9.13
				c5.311-2.111,11.299-3.164,17.991-3.164c6.576,0,12.511,1.011,17.814,3.024c5.302,2.022,9.841,4.99,13.607,8.908
				c3.767,3.92,6.66,8.74,8.684,14.467c2.014,5.728,3.025,12.295,3.025,19.71v4.703h-65.729c0.238,4.882,1.018,9.085,2.345,12.607
				c1.329,3.531,3.065,6.437,5.203,8.729c2.139,2.293,4.623,3.99,7.455,5.11c2.832,1.115,5.905,1.67,9.232,1.67
				c2.469,0,4.831-0.27,7.084-0.814c2.262-0.539,4.299-1.396,6.113-2.577c1.798-1.173,3.326-2.683,4.562-4.52
				c1.234-1.841,2.038-4.083,2.394-6.738h19.441c-0.726,4.581-2.215,8.653-4.477,12.207c-2.262,3.559-5.125,6.542-8.591,8.953
				c-3.466,2.412-7.455,4.245-11.978,5.515C1120.145,420.149,1115.234,420.782,1109.933,420.782z M1131.274,365.354
				c-0.549-4.215-1.467-7.835-2.764-10.846c-1.297-3.014-2.925-5.503-4.885-7.462c-1.954-1.957-4.215-3.404-6.777-4.338
				c-2.563-0.935-5.349-1.405-8.367-1.405c-5.78,0-10.682,1.991-14.687,5.971c-4.007,3.978-6.53,10.006-7.55,18.08H1131.274z"/>
			<path stroke="#000000" stroke-width="3.9518" stroke-miterlimit="10" d="M1188.227,343.118
				c3.443-5.005,7.178-8.788,11.215-11.347c4.036-2.563,8.383-3.843,13.021-3.843c1.027,0,2.123,0.058,3.304,0.177
				c1.174,0.123,2.424,0.274,3.751,0.456v18.443c-1.327-0.302-2.847-0.529-4.568-0.677c-1.714-0.154-3.604-0.23-5.649-0.23
				c-3.922,0-7.627,0.983-11.123,2.94c-3.497,1.959-6.692,4.929-9.586,8.906v60.758h-19.797v-88.698h19.434V343.118z"/>
		</g>
	</g>
	<g>
		<path d="M527.482,576.919c0,22.499-18.234,40.737-40.733,40.737H63.517c-22.499,0-40.732-18.238-40.732-40.737V153.692
			c0-22.497,18.234-40.735,40.732-40.735h423.232c22.499,0,40.733,18.238,40.733,40.735V576.919z"/>
		<g>
			<path fill="#FFFFFF" stroke="#000000" stroke-width="6.2516" stroke-miterlimit="10" d="M127.661,383.577
				c-6.924-17.769-10.729-37.095-10.729-57.309H53.851c0,0.425-0.016,0.845-0.016,1.271c0,40.196,10.721,77.893,29.46,110.379
				C95.136,417.511,110.155,399.179,127.661,383.577z"/>
			<path fill="#FFFFFF" stroke="#000000" stroke-width="6.2516" stroke-miterlimit="10" d="M496.416,326.269h-63.707
				c0,20.214-3.805,39.54-10.728,57.309c17.659,15.738,32.787,34.253,44.681,54.877c18.926-32.61,29.77-70.495,29.77-110.915
				C496.432,327.113,496.424,326.693,496.416,326.269z"/>
			<path fill="#FFFFFF" stroke="#000000" stroke-width="6.2516" stroke-miterlimit="10" d="M127.375,492.266
				c7.941-20.686,20.105-39.278,35.449-54.711c-15.158-15.255-27.222-33.587-35.164-53.978
				c-17.505,15.602-32.525,33.934-44.365,54.341C95.05,458.309,109.97,476.644,127.375,492.266z"/>
			<path fill="#FFFFFF" stroke="#000000" stroke-width="6.2516" stroke-miterlimit="10" d="M421.981,383.577
				c-7.95,20.391-20.007,38.723-35.165,53.978c15.444,15.54,27.662,34.277,35.604,55.136c17.45-15.579,32.425-33.875,44.241-54.236
				C454.769,417.83,439.641,399.315,421.981,383.577z"/>
			<path fill="#FFFFFF" stroke="#000000" stroke-width="6.2516" stroke-miterlimit="10" d="M180.654,327.539
				c0-0.426,0.031-0.846,0.031-1.271h-63.752c0,20.214,3.805,39.54,10.729,57.309c16.377-14.6,34.94-26.798,55.131-36.048
				C181.402,341.083,180.654,334.4,180.654,327.539z"/>
			<path fill="#FFFFFF" stroke="#000000" stroke-width="6.2516" stroke-miterlimit="10" d="M369.612,327.539
				c0,6.957-0.771,13.73-2.2,20.26c19.975,9.216,38.344,21.317,54.569,35.778c6.923-17.769,10.728-37.095,10.728-57.309h-63.127
				C369.589,326.693,369.612,327.113,369.612,327.539z"/>
			<path fill="#FFFFFF" stroke="#000000" stroke-width="6.2516" stroke-miterlimit="10" d="M216.899,401.907
				c-17.042-13.367-29.376-32.45-34.107-54.378c-20.191,9.25-38.754,21.448-55.131,36.048c7.941,20.391,20.005,38.723,35.164,53.978
				C178.068,422.211,196.438,409.98,216.899,401.907z"/>
			<path fill="#FFFFFF" stroke="#000000" stroke-width="6.2516" stroke-miterlimit="10" d="M333.151,402.077
				c20.299,8.077,38.522,20.242,53.665,35.478c15.158-15.255,27.215-33.587,35.165-53.978
				c-16.225-14.461-34.594-26.563-54.569-35.778C362.627,369.707,350.24,388.759,333.151,402.077z"/>
			<path fill="#FFFFFF" stroke="#000000" stroke-width="6.2516" stroke-miterlimit="10" d="M331.863,473.529
				c17.667,13.403,30.464,32.876,35.295,55.313c20.253-9.27,38.854-21.508,55.263-36.152c-7.942-20.858-20.16-39.596-35.604-55.136
				C371.357,453.111,352.678,465.459,331.863,473.529z"/>
			<path fill="#FFFFFF" stroke="#000000" stroke-width="6.2516" stroke-miterlimit="10" d="M217.779,473.529
				c-20.816-8.07-39.495-20.418-54.955-35.975c-15.344,15.433-27.508,34.025-35.449,54.711
				c16.37,14.694,34.948,26.982,55.162,36.311C187.422,506.251,200.181,486.879,217.779,473.529z"/>
			<path fill="#FFFFFF" stroke="#000000" stroke-width="6.2516" stroke-miterlimit="10" d="M333.151,402.077
				c-16.015,12.484-36.137,19.94-58.018,19.94c-0.101,0-0.208-0.008-0.317-0.008c-21.851-0.073-41.94-7.579-57.917-20.103
				c-20.461,8.073-38.831,20.304-54.075,35.647c15.46,15.557,34.138,27.904,54.955,35.975
				c15.845-12.025,35.604-19.172,57.038-19.172c21.434,0,41.193,7.146,57.046,19.172c20.815-8.07,39.494-20.418,54.954-35.975
				C371.673,422.319,353.451,410.154,333.151,402.077z"/>
			<path fill="#FFFFFF" stroke="#000000" stroke-width="6.2516" stroke-miterlimit="10" d="M331.863,473.529
				c-17.691,6.858-36.924,10.628-57.046,10.628c-20.113,0-39.347-3.77-57.038-10.628c-17.598,13.35-30.356,32.722-35.242,55.047
				c28.086,12.955,59.338,20.211,92.279,20.257c0.108,0,0.216,0.003,0.317,0.003c32.841,0,64-7.162,92.025-19.993
				C362.327,506.405,349.53,486.933,331.863,473.529z"/>
			<path fill="#FFFFFF" stroke="#000000" stroke-width="6.2516" stroke-miterlimit="10" d="M274.816,454.357
				c-21.434,0-41.192,7.146-57.038,19.172c17.69,6.858,36.924,10.628,57.038,10.628c20.122,0,39.355-3.77,57.046-10.628
				C316.009,461.504,296.25,454.357,274.816,454.357z"/>
			<g>
				<path fill="#FFFFFF" stroke="#000000" stroke-width="3.9518" stroke-miterlimit="10" d="M102.916,184.549
					c10.473-1.868,24.111-2.801,38.321-2.801c24.112,0,39.811,3.924,51.774,13.082c13.083,9.718,21.302,25.42,21.302,47.85
					c0,24.108-8.784,40.745-20.747,51.026c-13.268,11.025-33.644,16.258-58.312,16.258c-14.765,0-25.424-0.934-32.339-1.868V184.549
					z M131.327,287.164c2.431,0.559,6.545,0.559,9.91,0.559c25.979,0.186,42.983-14.02,42.983-44.109c0-27.103-15.321-40-39.996-40
					c-6.167,0-10.466,0.56-12.897,1.123V287.164z"/>
				<path fill="#FFFFFF" stroke="#000000" stroke-width="3.9518" stroke-miterlimit="10" d="M233.015,308.655V182.682h33.266
					l26.172,46.163c7.479,13.272,14.766,28.975,20.562,43.18h0.37c-1.682-16.636-2.245-33.647-2.245-52.711v-36.631h26.172v125.974
					h-29.908l-26.914-48.594c-7.479-13.646-15.884-29.718-21.865-44.484h-0.749c0.934,16.822,1.305,34.578,1.305,55.14v37.938
					H233.015z"/>
				<path fill="#FFFFFF" stroke="#000000" stroke-width="3.9518" stroke-miterlimit="10" d="M362.921,279.5
					c7.479,3.924,19.442,7.85,31.591,7.85c13.082,0,19.998-5.423,19.998-13.832c0-7.665-5.982-12.338-21.125-17.571
					c-20.932-7.475-34.763-19.063-34.763-37.569c0-21.491,18.13-37.753,47.661-37.753c14.395,0,24.675,2.802,32.154,6.352
					l-6.36,22.804c-4.862-2.427-14.016-5.978-26.165-5.978c-12.341,0-18.315,5.793-18.315,12.149
					c0,8.035,6.916,11.589,23.355,17.941c22.244,8.224,32.525,19.813,32.525,37.758c0,21.122-16.07,39.063-50.648,39.063
					c-14.395,0-28.604-3.924-35.705-7.85L362.921,279.5z"/>
			</g>
		</g>
	</g>
</g>
</svg>
