<?xml version="1.0" encoding="utf-8"?>
<!-- Generator: Adobe Illustrator 16.0.0, SVG Export Plug-In . SVG Version: 6.00 Build 0)  -->
<!DOCTYPE svg PUBLIC "-//W3C//DTD SVG 1.1//EN" "http://www.w3.org/Graphics/SVG/1.1/DTD/svg11.dtd">
<svg version="1.1" id="Layer_1" xmlns="http://www.w3.org/2000/svg" xmlns:xlink="http://www.w3.org/1999/xlink" x="0px" y="0px"
	 width="1291px" height="877px" viewBox="0 0 1291 877" enable-background="new 0 0 1291 877" xml:space="preserve">
<g>
	<path fill="#00AEEF" d="M974.508,607.922c0,28.712-23.271,51.986-51.982,51.986h-540.11c-28.711,0-51.981-23.274-51.981-51.986
		V67.818c0-28.707,23.27-51.982,51.981-51.982h540.11c28.712,0,51.982,23.275,51.982,51.982V607.922z"/>
	<g>
		<path fill="#FFFFFF" stroke="#00AEEF" stroke-width="7.978" stroke-miterlimit="10" d="M464.272,361.186
			c-8.835-22.673-13.69-47.337-13.69-73.133H370.08c0,0.542-0.021,1.079-0.021,1.621c0,51.297,13.682,99.403,37.596,140.86
			C422.766,404.49,441.934,381.098,464.272,361.186z"/>
		<path fill="#FFFFFF" stroke="#00AEEF" stroke-width="7.978" stroke-miterlimit="10" d="M934.861,288.052h-81.299
			c0,25.796-4.855,50.46-13.69,73.133c22.535,20.085,41.841,43.714,57.019,70.032c24.151-41.615,37.992-89.962,37.992-141.545
			C934.883,289.131,934.872,288.594,934.861,288.052z"/>
		<path fill="#FFFFFF" stroke="#00AEEF" stroke-width="7.978" stroke-miterlimit="10" d="M463.907,499.891
			c10.137-26.397,25.658-50.125,45.24-69.82c-19.345-19.469-34.74-42.861-44.875-68.885c-22.339,19.912-41.507,43.305-56.617,69.348
			C422.658,456.556,441.696,479.954,463.907,499.891z"/>
		<path fill="#FFFFFF" stroke="#00AEEF" stroke-width="7.978" stroke-miterlimit="10" d="M839.872,361.186
			c-10.146,26.023-25.531,49.416-44.876,68.885c19.709,19.832,35.301,43.743,45.438,70.361c22.27-19.881,41.377-43.23,56.457-69.214
			C881.713,404.899,862.407,381.271,839.872,361.186z"/>
		<path fill="#FFFFFF" stroke="#00AEEF" stroke-width="7.978" stroke-miterlimit="10" d="M531.9,289.673
			c0-0.542,0.039-1.079,0.039-1.621h-81.357c0,25.796,4.855,50.46,13.69,73.133c20.901-18.63,44.59-34.197,70.356-46.002
			C532.855,306.959,531.9,298.429,531.9,289.673z"/>
		<path fill="#FFFFFF" stroke="#00AEEF" stroke-width="7.978" stroke-miterlimit="10" d="M773.041,289.673
			c0,8.879-0.985,17.522-2.807,25.855c25.49,11.76,48.933,27.205,69.638,45.657c8.835-22.673,13.69-47.337,13.69-73.133h-80.562
			C773.012,288.594,773.041,289.131,773.041,289.673z"/>
		<path fill="#FFFFFF" stroke="#00AEEF" stroke-width="7.978" stroke-miterlimit="10" d="M578.154,384.58
			c-21.748-17.06-37.487-41.414-43.525-69.396c-25.767,11.805-49.455,27.372-70.356,46.002
			c10.135,26.023,25.53,49.416,44.875,68.885C528.601,410.489,552.043,394.883,578.154,384.58z"/>
		<path fill="#FFFFFF" stroke="#00AEEF" stroke-width="7.978" stroke-miterlimit="10" d="M726.511,384.796
			c25.904,10.309,49.16,25.831,68.485,45.274c19.345-19.469,34.73-42.861,44.876-68.885c-20.705-18.452-44.147-33.897-69.638-45.657
			C764.127,343.486,748.317,367.801,726.511,384.796z"/>
		<path fill="#FFFFFF" stroke="#00AEEF" stroke-width="7.978" stroke-miterlimit="10" d="M724.866,475.98
			c22.546,17.104,38.876,41.954,45.043,70.587c25.846-11.829,49.583-27.446,70.524-46.136
			c-10.137-26.618-25.729-50.529-45.438-70.361C775.268,449.922,751.431,465.683,724.866,475.98z"/>
		<path fill="#FFFFFF" stroke="#00AEEF" stroke-width="7.978" stroke-miterlimit="10" d="M579.277,475.98
			c-26.564-10.298-50.4-26.059-70.13-45.91c-19.582,19.695-35.104,43.423-45.24,69.82c20.892,18.753,44.6,34.434,70.396,46.337
			C540.538,517.738,556.82,493.015,579.277,475.98z"/>
		<path fill="#FFFFFF" stroke="#00AEEF" stroke-width="7.978" stroke-miterlimit="10" d="M726.511,384.796
			c-20.438,15.933-46.116,25.447-74.04,25.447c-0.128,0-0.266-0.01-0.404-0.01c-27.885-0.094-53.523-9.673-73.912-25.653
			c-26.111,10.303-49.554,25.909-69.007,45.49c19.729,19.852,43.565,35.612,70.13,45.91c20.222-15.347,45.438-24.468,72.789-24.468
			c27.353,0,52.568,9.121,72.8,24.468c26.564-10.298,50.401-26.059,70.13-45.91C775.671,410.627,752.415,395.104,726.511,384.796z"
			/>
		<path fill="#FFFFFF" stroke="#00AEEF" stroke-width="7.978" stroke-miterlimit="10" d="M724.866,475.98
			c-22.576,8.751-47.121,13.563-72.8,13.563c-25.668,0-50.213-4.812-72.789-13.563c-22.457,17.034-38.739,41.758-44.974,70.247
			c35.844,16.533,75.726,25.792,117.763,25.852c0.139,0,0.276,0.005,0.404,0.005c41.91,0,81.674-9.141,117.438-25.517
			C763.742,517.935,747.412,493.084,724.866,475.98z"/>
		<path fill="#FFFFFF" stroke="#00AEEF" stroke-width="7.978" stroke-miterlimit="10" d="M652.066,451.513
			c-27.352,0-52.567,9.121-72.789,24.468c22.576,8.751,47.121,13.563,72.789,13.563c25.679,0,50.224-4.812,72.8-13.563
			C704.635,460.634,679.419,451.513,652.066,451.513z"/>
		<g>
			<path fill="#FFFFFF" stroke="#00AEEF" stroke-width="5.0431" stroke-miterlimit="10" d="M432.694,107.197
				c13.365-2.384,30.771-3.576,48.903-3.576c30.771,0,50.805,5.009,66.072,16.695c16.695,12.401,27.185,32.44,27.185,61.063
				c0,30.766-11.209,51.997-26.476,65.117c-16.932,14.07-42.936,20.749-74.415,20.749c-18.842,0-32.444-1.192-41.27-2.384V107.197z
				 M468.951,238.149c3.102,0.714,8.353,0.714,12.646,0.714c33.155,0.237,54.853-17.892,54.853-56.291
				c0-34.587-19.551-51.046-51.041-51.046c-7.87,0-13.356,0.714-16.458,1.433V238.149z"/>
			<path fill="#FFFFFF" stroke="#00AEEF" stroke-width="5.0431" stroke-miterlimit="10" d="M598.721,265.575V104.813h42.453
				l33.399,58.911c9.545,16.937,18.842,36.976,26.24,55.104h0.473c-2.147-21.23-2.866-42.939-2.866-67.268v-46.747h33.4v160.762
				h-38.168l-34.346-62.014c-9.545-17.414-20.271-37.926-27.904-56.769h-0.955c1.191,21.467,1.664,44.126,1.664,70.366v48.416
				H598.721z"/>
			<path fill="#FFFFFF" stroke="#00AEEF" stroke-width="5.0431" stroke-miterlimit="10" d="M764.502,228.368
				c9.543,5.009,24.812,10.018,40.314,10.018c16.695,0,25.52-6.919,25.52-17.651c0-9.781-7.633-15.745-26.958-22.423
				c-26.713-9.54-44.362-24.329-44.362-47.944c0-27.426,23.136-48.179,60.821-48.179c18.37,0,31.489,3.575,41.034,8.106
				l-8.116,29.102c-6.206-3.098-17.888-7.629-33.392-7.629c-15.748,0-23.373,7.393-23.373,15.503
				c0,10.253,8.826,14.789,29.806,22.896c28.387,10.495,41.506,25.285,41.506,48.185c0,26.954-20.506,49.85-64.633,49.85
				c-18.37,0-36.503-5.009-45.564-10.018L764.502,228.368z"/>
		</g>
	</g>
	<g>
		<path fill="#00AEEF" stroke="#00AEEF" stroke-width="5.0431" stroke-miterlimit="10" d="M108.407,809.161
			c-3.138,3.556-6.555,6.265-10.269,8.146c-3.713,1.882-7.732,2.827-12.07,2.827c-4.964,0-9.393-0.926-13.288-2.788
			c-3.896-1.851-7.17-4.501-9.834-7.948c-2.669-3.458-4.694-7.604-6.077-12.47c-1.384-4.855-2.079-10.293-2.079-16.301
			c0-6.117,0.758-11.692,2.275-16.734c1.517-5.044,3.674-9.358,6.466-12.934c2.793-3.575,6.191-6.363,10.19-8.353
			c3.999-1.979,8.48-2.975,13.445-2.975c4.285,0,8.136,0.631,11.563,1.882c3.418,1.251,6.594,3.211,9.52,5.88
			c-0.103-3.24-0.172-6.353-0.192-9.327c-0.029-2.985-0.039-5.93-0.039-8.855v-17.168h17.399v106.288h-17.01V809.161z
			 M108.018,760.563c-2.669-2.62-5.477-4.59-8.431-5.919c-2.951-1.33-6.127-2-9.525-2c-5.486,0-9.795,2.315-12.933,6.935
			c-3.132,4.629-4.699,11.594-4.699,20.891c0,8.885,1.458,15.573,4.389,20.064c2.925,4.501,7.077,6.747,12.464,6.747
			c3.448,0,6.728-1.034,9.835-3.104c3.107-2.059,6.072-5.053,8.899-8.973V760.563z"/>
		<path fill="#00AEEF" stroke="#00AEEF" stroke-width="5.0431" stroke-miterlimit="10" d="M161.866,751.235
			c6.949-7.732,14.814-11.604,23.59-11.604c17.355,0,26.028,9.437,26.028,28.299v50.4h-17.167v-49.15
			c0-5.692-0.98-9.819-2.94-12.381s-5.21-3.841-9.756-3.841c-3.246,0-6.481,0.975-9.722,2.936c-3.241,1.959-6.476,4.797-9.716,8.51
			v53.927h-17.168v-76.896h16.853V751.235z"/>
		<path fill="#00AEEF" stroke="#00AEEF" stroke-width="5.0431" stroke-miterlimit="10" d="M259.453,820.134
			c-10.978,0-19.242-2.079-24.807-6.235c-5.565-4.156-8.638-10.331-9.209-18.537h16.538c0.158,8.776,5.929,13.17,17.321,13.17
			c5.067,0,8.958-1.035,11.677-3.094c2.718-2.068,4.078-4.668,4.078-7.801c0-2.039-0.68-3.693-2.039-4.975
			c-1.36-1.279-3.162-2.363-5.408-3.26c-2.246-0.886-4.796-1.665-7.643-2.344c-2.846-0.68-5.762-1.419-8.736-2.196
			c-2.98-0.788-5.89-1.714-8.742-2.788c-2.852-1.072-5.392-2.452-7.638-4.156c-2.251-1.694-4.054-3.782-5.413-6.265
			c-1.359-2.481-2.034-5.555-2.034-9.21c0-3.348,0.689-6.412,2.074-9.209c1.384-2.798,3.373-5.2,5.954-7.22
			c2.59-2.009,5.752-3.575,9.485-4.698c3.738-1.123,7.958-1.685,12.662-1.685c10.396,0,18.227,1.852,23.477,5.565
			c5.25,3.714,8.008,9.2,8.269,16.458h-16.306c-0.414-6.942-5.358-10.42-14.814-10.42c-1.985,0-3.852,0.206-5.605,0.62
			c-1.753,0.424-3.265,1.024-4.545,1.803c-1.28,0.787-2.285,1.764-3.019,2.945c-0.729,1.172-1.093,2.492-1.093,3.959
			c0,1.301,0.178,2.424,0.547,3.369c0.364,0.936,1.216,1.813,2.545,2.62c1.335,0.817,3.291,1.625,5.881,2.433
			c2.585,0.818,6.077,1.743,10.46,2.788c4.964,1.3,9.239,2.601,12.819,3.88c3.581,1.28,6.506,2.788,8.781,4.54
			c2.271,1.754,3.94,3.843,5.014,6.275c1.074,2.433,1.605,5.446,1.605,9.052c0,3.556-0.679,6.836-2.039,9.84
			c-1.359,3.004-3.378,5.604-6.072,7.801c-2.694,2.188-6.033,3.9-10.032,5.132C269.445,819.513,264.781,820.134,259.453,820.134z"/>
		<path fill="#00AEEF" stroke="#00AEEF" stroke-width="5.0431" stroke-miterlimit="10" d="M343.48,785.72h-41.073v-13.485h41.073
			V785.72z"/>
		<path fill="#00AEEF" stroke="#00AEEF" stroke-width="5.0431" stroke-miterlimit="10" d="M375.225,752.802
			c2.981-4.335,6.221-7.614,9.718-9.841c3.506-2.216,7.263-3.329,11.287-3.329c0.887,0,1.841,0.05,2.867,0.158
			c1.015,0.107,2.098,0.235,3.251,0.394v15.986c-1.153-0.256-2.473-0.453-3.961-0.591c-1.486-0.129-3.121-0.198-4.895-0.198
			c-3.399,0-6.614,0.857-9.643,2.553c-3.034,1.704-5.801,4.274-8.313,7.722v52.676h-17.164v-76.896h16.853V752.802z"/>
		<path fill="#00AEEF" stroke="#00AEEF" stroke-width="5.0431" stroke-miterlimit="10" d="M446.789,820.134
			c-6.111,0-11.573-0.926-16.38-2.788c-4.807-1.851-8.855-4.521-12.15-7.987c-3.295-3.478-5.796-7.713-7.524-12.707
			c-1.724-4.983-2.586-10.617-2.586-16.892c0-6.264,0.862-11.879,2.586-16.854c1.729-4.964,4.205-9.169,7.445-12.616
			c3.242-3.448,7.162-6.088,11.756-7.92c4.601-1.822,9.802-2.738,15.603-2.738c5.692,0,10.844,0.877,15.444,2.631
			c4.596,1.743,8.53,4.323,11.79,7.712c3.27,3.397,5.776,7.584,7.525,12.549c1.753,4.964,2.63,10.657,2.63,17.079v4.078h-56.985
			c0.207,4.235,0.886,7.879,2.034,10.932c1.152,3.064,2.653,5.586,4.51,7.565c1.853,1.99,4.009,3.468,6.468,4.433
			c2.457,0.966,5.116,1.447,7.992,1.447c2.147,0,4.195-0.235,6.156-0.699c1.96-0.473,3.724-1.221,5.29-2.235
			c1.566-1.024,2.886-2.324,3.959-3.921c1.068-1.596,1.763-3.535,2.078-5.841h16.853c-0.631,3.97-1.92,7.496-3.88,10.578
			c-1.961,3.084-4.442,5.674-7.447,7.763c-3.004,2.088-6.471,3.683-10.387,4.787C455.648,819.582,451.389,820.134,446.789,820.134z
			 M465.287,772.088c-0.468-3.665-1.262-6.798-2.384-9.407c-1.129-2.62-2.541-4.777-4.236-6.471
			c-1.698-1.695-3.658-2.955-5.88-3.763c-2.221-0.808-4.639-1.212-7.249-1.212c-5.013,0-9.265,1.724-12.736,5.171
			c-3.476,3.447-5.658,8.678-6.549,15.682H465.287z"/>
		<path fill="#00AEEF" stroke="#00AEEF" stroke-width="5.0431" stroke-miterlimit="10" d="M526.351,820.134
			c-10.978,0-19.242-2.079-24.808-6.235c-5.564-4.156-8.638-10.331-9.209-18.537h16.538c0.157,8.776,5.929,13.17,17.319,13.17
			c5.068,0,8.959-1.035,11.678-3.094c2.719-2.068,4.078-4.668,4.078-7.801c0-2.039-0.68-3.693-2.039-4.975
			c-1.359-1.279-3.162-2.363-5.408-3.26c-2.245-0.886-4.796-1.665-7.643-2.344c-2.847-0.68-5.763-1.419-8.736-2.196
			c-2.98-0.788-5.891-1.714-8.743-2.788c-2.851-1.072-5.393-2.452-7.637-4.156c-2.252-1.694-4.054-3.782-5.413-6.265
			c-1.359-2.481-2.034-5.555-2.034-9.21c0-3.348,0.689-6.412,2.074-9.209c1.384-2.798,3.373-5.2,5.954-7.22
			c2.59-2.009,5.752-3.575,9.484-4.698c3.738-1.123,7.959-1.685,12.662-1.685c10.396,0,18.228,1.852,23.477,5.565
			c5.25,3.714,8.008,9.2,8.27,16.458h-16.307c-0.413-6.942-5.358-10.42-14.813-10.42c-1.985,0-3.852,0.206-5.605,0.62
			c-1.753,0.424-3.265,1.024-4.545,1.803c-1.28,0.787-2.285,1.764-3.02,2.945c-0.729,1.172-1.093,2.492-1.093,3.959
			c0,1.301,0.178,2.424,0.546,3.369c0.365,0.936,1.217,1.813,2.546,2.62c1.335,0.817,3.291,1.625,5.881,2.433
			c2.586,0.818,6.077,1.743,10.461,2.788c4.964,1.3,9.238,2.601,12.818,3.88c3.581,1.28,6.507,2.788,8.782,4.54
			c2.271,1.754,3.939,3.843,5.013,6.275s1.605,5.446,1.605,9.052c0,3.556-0.679,6.836-2.039,9.84
			c-1.358,3.004-3.378,5.604-6.071,7.801c-2.694,2.188-6.033,3.9-10.032,5.132C536.342,819.513,531.68,820.134,526.351,820.134z"/>
		<path fill="#00AEEF" stroke="#00AEEF" stroke-width="5.0431" stroke-miterlimit="10" d="M606.694,739.632
			c5.698,0,10.858,0.877,15.479,2.631c4.629,1.743,8.569,4.333,11.839,7.751c3.261,3.428,5.782,7.633,7.564,12.627
			c1.773,4.984,2.66,10.697,2.66,17.119c0,6.48-0.887,12.232-2.66,17.246c-1.782,5.015-4.304,9.24-7.564,12.657
			c-3.27,3.428-7.21,6.028-11.839,7.802c-4.62,1.782-9.78,2.669-15.479,2.669c-5.645,0-10.78-0.887-15.4-2.669
			c-4.629-1.773-8.56-4.374-11.8-7.802c-3.24-3.417-5.752-7.643-7.525-12.657c-1.773-5.014-2.664-10.766-2.664-17.246
			c0-6.422,0.891-12.135,2.664-17.119c1.773-4.994,4.285-9.199,7.525-12.627c3.24-3.418,7.171-6.008,11.8-7.751
			C595.914,740.509,601.05,739.632,606.694,739.632z M606.694,807.28c2.979,0,5.683-0.581,8.11-1.724
			c2.433-1.153,4.513-2.877,6.236-5.182c1.724-2.294,3.052-5.151,3.993-8.579c0.94-3.417,1.413-7.437,1.413-12.036
			c0-4.54-0.473-8.51-1.413-11.908c-0.941-3.398-2.27-6.235-3.993-8.51c-1.724-2.266-3.804-3.98-6.236-5.132
			c-2.428-1.153-5.132-1.724-8.11-1.724c-2.98,0-5.684,0.57-8.111,1.724c-2.434,1.151-4.512,2.866-6.235,5.132
			c-1.724,2.274-3.054,5.111-3.998,8.51c-0.937,3.398-1.41,7.368-1.41,11.908c0,4.6,0.474,8.619,1.41,12.036
			c0.944,3.428,2.274,6.285,3.998,8.579c1.724,2.305,3.802,4.028,6.235,5.182C601.011,806.699,603.714,807.28,606.694,807.28z"/>
		<path fill="#00AEEF" stroke="#00AEEF" stroke-width="5.0431" stroke-miterlimit="10" d="M676.297,818.331h-17.163V712.043h17.163
			V818.331z"/>
		<path fill="#00AEEF" stroke="#00AEEF" stroke-width="5.0431" stroke-miterlimit="10" d="M760.876,741.436l-28.219,76.896h-16.538
			l-28.613-76.896h18.188l11.209,35.192l7.367,23.048l7.295-23.048l11.36-35.192H760.876z"/>
		<path fill="#00AEEF" stroke="#00AEEF" stroke-width="5.0431" stroke-miterlimit="10" d="M806.338,820.134
			c-6.112,0-11.579-0.926-16.385-2.788c-4.807-1.851-8.855-4.521-12.146-7.987c-3.295-3.478-5.8-7.713-7.524-12.707
			c-1.723-4.983-2.591-10.617-2.591-16.892c0-6.264,0.868-11.879,2.591-16.854c1.725-4.964,4.206-9.169,7.446-12.616
			c3.24-3.448,7.161-6.088,11.756-7.92c4.595-1.822,9.795-2.738,15.597-2.738c5.698,0,10.845,0.877,15.443,2.631
			c4.601,1.743,8.531,4.323,11.796,7.712c3.266,3.397,5.777,7.584,7.525,12.549c1.749,4.964,2.624,10.657,2.624,17.079v4.078
			h-56.979c0.207,4.235,0.887,7.879,2.033,10.932c1.148,3.064,2.655,5.586,4.507,7.565c1.856,1.99,4.009,3.468,6.471,4.433
			c2.454,0.966,5.118,1.447,7.993,1.447c2.144,0,4.191-0.235,6.151-0.699c1.96-0.473,3.723-1.221,5.289-2.235
			c1.571-1.024,2.891-2.324,3.96-3.921c1.073-1.596,1.764-3.535,2.079-5.841h16.853c-0.626,3.97-1.921,7.496-3.881,10.578
			c-1.96,3.084-4.442,5.674-7.446,7.763c-3.005,2.088-6.468,3.683-10.383,4.787C815.197,819.582,810.933,820.134,806.338,820.134z
			 M824.836,772.088c-0.468-3.665-1.266-6.798-2.389-9.407c-1.123-2.62-2.536-4.777-4.235-6.471
			c-1.695-1.695-3.654-2.955-5.88-3.763c-2.218-0.808-4.634-1.212-7.25-1.212c-5.014,0-9.259,1.724-12.735,5.171
			c-3.478,3.447-5.653,8.678-6.546,15.682H824.836z"/>
		<path fill="#00AEEF" stroke="#00AEEF" stroke-width="5.0431" stroke-miterlimit="10" d="M874.218,752.802
			c2.979-4.335,6.22-7.614,9.722-9.841c3.501-2.216,7.258-3.329,11.287-3.329c0.887,0,1.842,0.05,2.86,0.158
			c1.021,0.107,2.104,0.235,3.256,0.394v15.986c-1.151-0.256-2.472-0.453-3.959-0.591c-1.492-0.129-3.123-0.198-4.9-0.198
			c-3.397,0-6.614,0.857-9.644,2.553c-3.028,1.704-5.796,4.274-8.309,7.722v52.676h-17.167v-76.896h16.854V752.802z"/>
		<path fill="#00AEEF" stroke="#00AEEF" stroke-width="5.0431" stroke-miterlimit="10" d="M948.213,785.72H907.14v-13.485h41.073
			V785.72z"/>
		<path fill="#00AEEF" stroke="#00AEEF" stroke-width="5.0431" stroke-miterlimit="10" d="M980.269,727.793h-17.162v-16.065h17.162
			V727.793z M980.269,818.331h-17.162v-76.896h17.162V818.331z"/>
		<path fill="#00AEEF" stroke="#00AEEF" stroke-width="5.0431" stroke-miterlimit="10" d="M1016.723,751.235
			c6.944-7.732,14.814-11.604,23.591-11.604c17.35,0,26.022,9.437,26.022,28.299v50.4h-17.169v-49.15
			c0-5.692-0.975-9.819-2.935-12.381s-5.21-3.841-9.762-3.841c-3.239,0-6.48,0.975-9.722,2.936c-3.24,1.959-6.475,4.797-9.717,8.51
			v53.927H999.87v-76.896h16.853V751.235z"/>
		<path fill="#00AEEF" stroke="#00AEEF" stroke-width="5.0431" stroke-miterlimit="10" d="M1105.527,754.288v64.043h-17.167v-64.043
			h-11.283v-12.853h11.283v-6.274c0-8.57,1.896-14.903,5.683-19.011c3.793-4.097,9.658-6.146,17.602-6.146
			c2.403,0,4.546,0.079,6.427,0.237c1.881,0.157,3.58,0.383,5.097,0.698v13.643c-1.358-0.158-2.747-0.296-4.156-0.433
			c-1.408-0.129-2.899-0.198-4.471-0.198c-3.084,0-5.354,0.896-6.816,2.67c-1.463,1.772-2.197,4.777-2.197,9.013v5.802h14.11v12.853
			H1105.527z"/>
		<path fill="#00AEEF" stroke="#00AEEF" stroke-width="5.0431" stroke-miterlimit="10" d="M1146.916,752.802
			c2.975-4.335,6.215-7.614,9.723-9.841c3.495-2.216,7.258-3.329,11.286-3.329c0.888,0,1.843,0.05,2.857,0.158
			c1.024,0.107,2.108,0.235,3.256,0.394v15.986c-1.147-0.256-2.468-0.453-3.96-0.591c-1.492-0.129-3.122-0.198-4.9-0.198
			c-3.398,0-6.609,0.857-9.643,2.553c-3.029,1.704-5.797,4.274-8.304,7.722v52.676h-17.169v-76.896h16.854V752.802z"/>
		<path fill="#00AEEF" stroke="#00AEEF" stroke-width="5.0431" stroke-miterlimit="10" d="M1233.063,810.964
			c-6.895,6.107-15.701,9.17-26.418,9.17c-3.604,0-7.027-0.482-10.268-1.448c-3.24-0.975-6.072-2.394-8.505-4.274
			c-2.429-1.882-4.349-4.206-5.763-6.974c-1.408-2.777-2.113-5.988-2.113-9.644c0-8.992,3.852-15.699,11.559-20.142
			c7.713-4.442,19.297-6.668,34.766-6.668h6.584c0-2.296-0.04-4.324-0.118-6.078c-0.079-1.743-0.246-3.143-0.507-4.187
			c-0.625-2.669-1.906-4.757-3.842-6.274c-2.457-2.137-6.535-3.21-12.229-3.21c-5.486,0-9.667,1.005-12.539,3.014
			c-2.875,2.009-4.363,5.082-4.472,9.21h-16.38c0.99-15.889,12.41-23.827,34.253-23.827c5.175,0,9.73,0.443,13.676,1.329
			c3.949,0.888,7.462,2.385,10.544,4.473c2.98,1.979,5.201,4.768,6.663,8.343c1.463,3.585,2.197,8.51,2.197,14.774v49.78h-17.089
			V810.964z M1232.904,782.035h-8.308c-8.938,0-15.667,1.202-20.188,3.604c-4.521,2.404-6.776,6.147-6.776,11.21
			c0,3.713,1.329,6.511,3.998,8.392c2.659,1.881,6.245,2.816,10.737,2.816c2.039,0,4.063-0.235,6.076-0.699
			c2.011-0.473,3.9-1.143,5.685-1.999c1.771-0.867,3.407-1.911,4.895-3.143c1.488-1.222,2.787-2.59,3.881-4.107V782.035z"/>
	</g>
</g>
</svg>
